<?xml version="1.0" encoding="utf-8"?>
<!-- Generator: Adobe Illustrator 14.0.0, SVG Export Plug-In . SVG Version: 6.00 Build 43363)  -->
<!DOCTYPE svg PUBLIC "-//W3C//DTD SVG 1.1//EN" "http://www.w3.org/Graphics/SVG/1.1/DTD/svg11.dtd">
<svg version="1.1" id="Layer_1" xmlns="http://www.w3.org/2000/svg" xmlns:xlink="http://www.w3.org/1999/xlink" x="0px" y="0px"
	 width="612px" height="792px" viewBox="0 0 612 792" enable-background="new 0 0 612 792" xml:space="preserve">
<g>
	<polygon fill-rule="evenodd" clip-rule="evenodd" fill="#FFFFFF" points="209,300 401.756,300 401.756,492.756 209,492.756 
		209,300 	"/>
	<path fill-rule="evenodd" clip-rule="evenodd" fill="#FFFFFF" d="M225.817,361.974c-6.716,5.612-8.313,12.558-8.313,17.896
		c0,4.104,0.94,7.245,1.229,8.111c-0.009,0.131-0.024,0.263-0.024,0.392c0,2.996,2.294,5.697,3.773,7.127
		c-1.981,1.51-3.096,3.281-3.29,5.289c-0.021,0.211-0.031,0.42-0.031,0.627c0,3.03,2.077,5.604,3.092,6.682
		c-0.432,1.721-0.505,3.646-0.517,4.265c-1.142,3.245-1.535,5.823-1.535,7.805c0,1.74,0.3,3.022,0.651,3.901
		c-0.836,0.492-2.396,1.41-2.396,1.41l-0.042,0.631c-0.013,0.183-0.019,0.362-0.019,0.539c0,1.54,0.464,2.832,1.383,3.847
		c1.529,1.688,3.826,1.98,4.45,2.03c1.302,0.393,3.804,0.219,4.966,0.022c2.481,0.537,4.697,0.275,5.381,0.168
		c1.652,0.271,4.283,0.183,4.886,0.156c5.486,1.119,8.94,0.402,10.479-0.287c5.665,1.397,10.393,1.281,13.38,0.918
		c1.38-0.169,2.742-0.429,3.937-0.752c0.463-0.126,0.807-0.227,1.078-0.318c4.818,1.499,12.656-0.183,12.998-0.258
		c0,0,0.25-0.055,0.492-0.107c0.682,1.174,2.486,4.281,2.486,4.281s2.164-4.328,3.189-6.377c0.608,1.825,1.627,4.883,1.627,4.883
		s6.7-2.288,7.495-2.56c7.63,3.663,14.501,1.851,17.775,0.528c-0.044,0.443-0.107,1.073-0.107,1.073l16.77-2.34
		c0,0,0.083-1.506,0.104-1.89c3.058,1.861,8.545,4.804,9.322,5.219l0.818,0.438c0,0,0.788-0.859,0.827-0.902
		c0.062,0.34,0.125,0.688,0.125,0.688s16.646-3.79,17.53-3.991c1.421,0.821,6.132,3.265,12.135,3.411
		c5.141,0.126,12.896-3.331,17.288-7.705c2.646-2.637,4.041-5.501,4.041-8.296c0-0.058-0.001-0.114-0.002-0.171
		c-0.126-6.188-4.866-9.704-7.869-11.316c1.801-0.745,3.659-1.293,3.686-1.3l0.965-0.282l-0.111-0.999
		c-0.586-5.282-3.874-8.948-5.102-10.15c0.058-0.71,0.095-1.399,0.095-2.049c0-4.836-1.579-8.019-4.711-9.479
		c-2.622-1.222-5.827-0.854-7.924-0.304c0.013-0.296,0.027-0.596,0.027-0.875c0-7.082-3.807-8.764-6.255-9.112
		c-1.227-0.174-2.58-0.101-4.021,0.217c-0.496,0.11-0.891,0.211-1.211,0.311c-5.642-3.879-10.753-2.506-13.343-1.297
		c-0.29,0.135-1.146,0.55-1.953,1.075c-1.58-3.079-4.176-4.445-6.335-4.919c0.708-1.21,1.081-2.542,1.081-3.861
		c0-1.094-0.252-2.178-0.772-3.176c-1.767-3.386-5.93-4.796-11.138-3.771c-9.784,1.925-14.135,8.15-15.563,10.196l-0.28,0.394
		c-0.172,0.229-0.365,0.338-0.607,0.342c-0.256,0.004-0.487-0.113-0.661-0.247c0.105-0.647,0.793-2.21,1.598-3.592l0.88-1.511
		l-1.727-0.273c-2.765-0.437-13.259,1.925-17.544,2.935c0.043-0.325,0.329-2.462,0.329-2.462s-7.5,1.667-7.601,1.689
		c-0.1,0.013-5.753,0.757-6.084,0.8c-0.22-0.037-1.508-0.251-2.608-0.435c0.136-0.722,0.497-2.65,0.497-2.65l-1.194-0.208
		c-3.402-0.591-16.813,2.852-21.851,4.199c0.001-0.048,0.01-0.097,0.01-0.145c0-2.641-1.484-5.08-4.268-6.9
		C245.466,355.135,234.09,355.061,225.817,361.974L225.817,361.974z M257.175,383.628c0.027,1.62,0.036,2.121,0.061,3.673
		c-0.457-0.368-0.953-0.699-1.48-0.945C256.377,385.162,257.109,383.755,257.175,383.628L257.175,383.628z M307.711,418.036
		c0-0.242,0.224-0.771,0.566-1.296c0.101,0.609,0.195,1.135,0.265,1.502c-0.207,0.063-0.539-0.045-0.756-0.136
		c-0.054-0.021-0.062-0.03-0.071-0.038C307.713,418.058,307.711,418.049,307.711,418.036L307.711,418.036z"/>
	<path fill-rule="evenodd" clip-rule="evenodd" fill="#ED1847" d="M382.585,407.084c2.159-1.33,6.146-2.492,6.146-2.492
		c-0.664-5.981-5.149-9.802-5.149-9.802c1.661-16.447-12.627-10.633-12.627-10.633c1.661-14.62-10.3-9.802-10.3-9.802
		c-8.473-6.313-15.617,0.332-15.617,0.332c-2.159-6.313-8.141-5.814-8.141-5.814c4.652-4.486,1.828-12.626-8.307-10.632
		c-10.134,1.993-14.121,8.805-15.118,10.134s-2.658,0.831-3.322,0c-0.665-0.831,1.661-4.817,1.661-4.817
		c-3.157-0.499-18.773,3.322-18.773,3.322l0.332-2.492l-5.981,1.33l-6.313,0.831l-3.987-0.665l0.499-2.659
		c-3.821-0.664-23.093,4.652-23.093,4.652c2.658-9.138-15.783-15.119-27.911-4.984s-6.646,24.92-6.646,24.92
		c-0.498,3.987,4.486,7.808,4.486,7.808c-8.639,5.15-0.831,12.128-0.831,12.128c-0.665,1.993-0.665,4.818-0.665,4.818
		c-3.157,8.805-0.499,11.961-0.499,11.961l-2.824,1.661c-0.332,4.984,4.818,5.15,4.818,5.15c1.163,0.498,4.818,0,4.818,0
		c2.824,0.665,5.316,0.166,5.316,0.166c1.661,0.332,4.984,0.167,4.984,0.167c7.144,1.494,10.3-0.333,10.3-0.333
		c10.965,2.824,18.441-0.166,18.441-0.166c4.486,1.661,12.792-0.166,12.792-0.166l0.166-2.326l2.991,5.15l3.489-6.978l2.16,6.479
		l6.812-2.326c10.134,5.15,19.105-0.166,19.105-0.166l-0.166,1.661l14.287-1.993l0.166-2.991c1.329,1.163,10.965,6.313,10.965,6.313
		l1.828-1.994l0.332,1.828l16.779-3.821c0,0,5.15,3.322,11.962,3.489c6.812,0.166,20.269-6.812,20.103-14.952
		S382.585,407.084,382.585,407.084L382.585,407.084z M253.997,387.147c0,0,1.329-2.492,2.159-4.153
		c0.831-1.662,0.665-2.16,2.16-2.658l0.166,9.968C258.482,390.304,255.99,386.981,253.997,387.147L253.997,387.147z
		 M307.325,419.211c-1.993-0.83,0.333-3.654,0.333-3.654c0.83-1.496,1.329-3.323,1.329-3.323c0,2.16,0.831,6.313,0.831,6.313
		S309.319,420.042,307.325,419.211L307.325,419.211z"/>
	<path fill-rule="evenodd" clip-rule="evenodd" d="M243.688,429.013c0,0-3.544,0.253-3.797,0.05
		c-0.253-0.202-0.152-0.506-0.152-0.506s-1.367,0.709-1.621,0.506c-0.253-0.202-0.253-0.607-0.253-0.607s-1.114,0.558-1.468,0.354
		c-0.354-0.202-0.102-0.304-0.102-0.304s-0.658,0.405-0.962,0.253c-0.303-0.151-0.303-0.557-0.303-0.557s-5.215,0.557-5.418,0.456
		c-0.203-0.102-0.152-0.354-0.152-0.354s-1.215,0.81-1.519,0.607c-0.304-0.203-0.152-0.607-0.152-0.607s-1.367,0.709-1.721,0.557
		s-0.405-0.506-0.405-0.506s-0.557,0.253-0.911,0.253s-0.354-0.405-0.354-0.405s-0.76,0.456-1.063,0.253
		c-0.304-0.202-0.101-0.557-0.101-0.557s-0.81,0.506-0.912,0.101c-0.101-0.404,0.557-0.759,0.557-0.759s-1.165,0.658-1.316,0.455
		c-0.152-0.202-0.102-0.506-0.102-0.506s-0.506,0.051-0.506-0.152c0-0.202,1.114-0.81,1.367-0.759s-0.202,0.607-0.202,0.607
		s1.822-0.861,2.076-0.811c0.253,0.051-0.861,0.911-0.861,0.911s2.026-1.215,2.481-1.113c0.456,0.102,0.203,0.557,0.203,0.557
		s0.557-0.507,1.266-0.354s1.671,1.114,1.671,1.114S238.168,426.582,243.688,429.013L243.688,429.013z"/>
	<path fill-rule="evenodd" clip-rule="evenodd" d="M303.649,383.973l0.957-6.76l-8.495,1.915c0,0-0.24-2.274,0.12-3.291
		c0,0,6.162-1.316,9.213-1.316l2.453-8.316c0,0-17.171,2.992-20.761,4.906c0,0,3.231,11.906,4.368,24.111
		c0,0,16.333-1.915,18.307-3.171c0,0-2.752-5.684-3.051-7.12l-8.675,2.513l-0.897-2.453
		C297.188,384.99,301.196,384.032,303.649,383.973L303.649,383.973z"/>
	<path fill-rule="evenodd" clip-rule="evenodd" fill="#FFCB05" d="M304.965,373.623c0,0-9.094,1.017-9.632,1.556
		c0,0-0.06,4.128,0.18,4.906l8.196-2.034l-0.778,5.205c0,0-3.529,0.239-6.521,1.137c0,0,0.239,2.453,0.957,3.829
		c0,0,7.957-1.795,9.034-2.273c0,0,1.556,4.367,2.214,5.684c0,0-13.103,2.752-16.273,2.573c0,0-1.316-9.692-2.214-13.761
		c-0.897-4.068-2.333-8.735-2.333-8.735s8.137-3.171,18.606-4.308C306.401,367.4,305.085,372.246,304.965,373.623L304.965,373.623z"
		/>
	<path fill-rule="evenodd" clip-rule="evenodd" d="M278.163,379.366c0,0,2.991-0.239,3.829-0.479c0,0-0.18-6.342-0.479-9.991
		c0,0,3.829-0.418,5.564-0.778c1.735-0.359,3.29-0.598,3.29-0.598l-0.837,25.726l-7.718,0.838l0.359-9.214
		c0,0-1.974-0.239-4.008,0.658c0,0,0,6.342,0.598,8.077c0,0-6.641,0.897-8.196,1.735c0,0-0.479-2.573-0.299-9.692
		c0.18-7.12-0.06-16.273,0.658-18.008c0,0,6.641,0.718,7.958,1.077C278.88,368.717,277.863,376.973,278.163,379.366L278.163,379.366
		z"/>
	<path fill-rule="evenodd" clip-rule="evenodd" fill="#FFCB05" d="M277.803,369.435c0,0-0.598,9.333-0.418,10.889l5.624-0.897
		c0,0-0.18-7.419-0.599-9.453c0,0,6.163-1.735,6.88-1.495l-0.539,23.871l-5.863,0.658l0.18-9.393c0,0-3.291,0.479-5.803,1.556
		c0,0-0.06,5.863,0.538,7.538c0,0-5.624,1.077-6.282,1.735c0,0-0.599-23.213,0-25.786
		C271.521,368.657,276.846,369.255,277.803,369.435L277.803,369.435z"/>
	<path fill-rule="evenodd" clip-rule="evenodd" d="M254.291,370.631c0,0,17.649-5.146,19.982-4.607c0,0-0.958,8.256-1.137,8.436
		l-5.205,1.077c0,0-0.179,5.863,1.735,18.427c0,0-6.582,1.077-8.137,3.589c0,0-0.538-10.949-0.658-14.837
		c-0.12-3.889-0.18-5.863-0.18-5.863l-5.444,1.675C255.248,378.529,254.411,372.007,254.291,370.631L254.291,370.631z"/>
	<path fill-rule="evenodd" clip-rule="evenodd" fill="#FFCB05" d="M255.308,371.05c0,0,0.359,5.564,0.598,6.342
		c0,0,5.025-2.094,5.863-1.675c0,0-0.06,8.137,0.06,11.547s0.18,8.077,0.18,8.077s4.547-2.513,6.641-2.094
		c0,0-0.897-7.418-1.017-9.333c-0.12-1.915-0.718-7.778-0.599-9.035c0,0,3.949-1.256,5.325-0.778c0,0,0.718-5.982,0.778-7.119
		C273.137,366.982,263.385,368.657,255.308,371.05L255.308,371.05z"/>
	<path fill-rule="evenodd" clip-rule="evenodd" d="M377.059,407.127c0,0,6.521-4.248,8.676-4.368c0,0-1.137-5.504-5.205-7.179
		s-18.538-3.27-22.854,9.931c-1.018,3.111,1.196,9.273,7.358,9.153c6.162-0.119,13.461,1.018,13.88,3.59
		c0.419,2.573-9.513,5.505-9.752,4.607c-0.238-0.897,1.796-3.351,1.796-3.351s-4.967-0.598-9.274-1.975c0,0-3.51,4.886-1.436,9.034
		c0.897,1.795,7.897,5.385,14.777,3.649c6.881-1.734,15.077-7.358,14.777-12.563c-0.299-5.205-7.119-9.513-13.281-9.513
		s-9.572-0.538-9.692-0.897s3.29-3.829,5.863-3.77C375.264,403.537,376.4,406.349,377.059,407.127L377.059,407.127z"/>
	<path fill-rule="evenodd" clip-rule="evenodd" fill="#FFCB05" d="M377.837,405.93c0,0,5.205-3.829,6.7-3.889
		c0,0-1.914-4.308-4.247-5.444c-2.334-1.137-15.496-4.155-20.701,7.598c-1.854,4.188,0.897,8.316,4.068,9.034
		s4.367,0.599,7.777,0.957c3.411,0.359,9.453,1.557,9.214,3.83c-0.239,2.272-5.504,5.324-9.453,5.624
		c-3.948,0.299-2.932-1.496-1.854-3.352l-6.701-1.615c0,0-3.11,4.368-0.657,7.359s8.556,3.589,11.248,3.351
		c2.691-0.239,10.469-2.692,14.059-8.376s-1.675-9.812-5.982-10.889s-8.316-1.437-10.351-1.437s-4.966,0-5.085-1.017
		c-0.12-1.018,3.761-5.444,7.598-5.444C374.726,402.221,376.46,403.775,377.837,405.93L377.837,405.93z"/>
	<path fill-rule="evenodd" clip-rule="evenodd" d="M351.513,405.212c0,0-0.3,2.752,0.119,4.487c0,0,7.838-1.676,10.171-1.915
		c0,0-1.076,5.924-1.076,9.453c0,0-7.42,0.718-8.077,0.897c0,0,2.931,7.598,4.547,9.453c0,0-9.513,1.555-12.325,2.572
		c0,0-5.683-28.479-4.486-32.666c0,0,19.982-5.025,23.931-4.487l-0.598,10.23C363.718,403.237,354.862,404.494,351.513,405.212
		L351.513,405.212z"/>
	<path fill-rule="evenodd" clip-rule="evenodd" fill="#FFCB05" d="M350.615,404.435l12.444-2.154l0.358-8.496
		c0,0-17.648,2.932-22.076,4.607c0,0,0.359,11.906,4.606,30.393c0,0,7.897-2.213,9.513-2.034c0,0-3.77-6.94-3.77-9.273l8.257-1.017
		l0.479-7.599l-9.752,1.975C350.675,410.836,350.196,407.785,350.615,404.435L350.615,404.435z"/>
	<path fill-rule="evenodd" clip-rule="evenodd" d="M347.683,410.956c5.316-10.836-2.034-12.444-6.999-13.282
		c-4.967-0.838-18.547,1.555-18.547,1.555c-0.658,2.274-3.59,30.094-3.59,30.094c1.795,0,9.572-1.376,9.572-1.376
		c0.056-1.547,0.13-3.013,0.217-4.404c4.936,3.78,12.406,7.276,12.406,7.276l6.701-7.299c-1.795-0.479-11.786-4.966-11.786-4.966
		C339.367,417.716,346.128,414.126,347.683,410.956L347.683,410.956z M330.213,412.451c-0.26,0.033-0.521,0.08-0.779,0.14
		c0.693-4.807,1.378-7.259,1.378-7.259c1.974-0.419,7.658,0.06,8.077,2.513S334.461,411.912,330.213,412.451L330.213,412.451z"/>
	<path fill-rule="evenodd" clip-rule="evenodd" fill="#FFCB05" d="M345.948,411.194c2.872-4.547,3.23-7.957-0.18-10.529
		c-3.41-2.573-11.606-3.171-22.794-0.658c0,0-3.291,26.624-3.231,28.358l7.658-1.556c0,0,0.122-2.147,0.324-5.126
		c2.039,1.708,5.507,4.188,12.3,7.879l5.384-5.624c0,0-11.308-4.368-12.504-5.804C332.905,418.135,343.076,415.741,345.948,411.194
		L345.948,411.194z M328.346,413.582c0.379-4.315,0.829-8.275,1.27-9.327c0,0,9.188-1.381,10.351,3.529
		C340.486,409.985,334.279,413.42,328.346,413.582L328.346,413.582z"/>
	<path fill-rule="evenodd" clip-rule="evenodd" d="M313.94,397.255l-11.009-1.675c0,0-4.406,9.647-5.863,14.239
		c-1.974,6.223-4.128,16.273,1.496,19.265s12.085,0.599,16.154-1.017c4.068-1.616,7.239-3.23,7.239-3.23s-1.376-7.359-1.615-12.266
		c-0.239-4.905-0.538-9.752,0.299-13.042c0,0-5.624,2.871-10.111,4.427c0,0-0.06,6.163,1.855,15.975c0,0-5.086,3.052-7.18,0.957
		c-2.094-2.094,1.496-10.11,3.111-13.342C309.932,404.314,313.94,397.255,313.94,397.255L313.94,397.255z"/>
	<path fill-rule="evenodd" clip-rule="evenodd" fill="#FFCB05" d="M312.324,398.032c0,0-6.461-0.599-8.315-1.495
		c0,0-4.786,8.615-6.222,14.657c-1.436,6.043-5.085,18.487,5.265,18.068S321,424.477,321,424.477s-1.197-4.667-1.676-12.444
		s-0.06-10.59-0.06-10.59l-7.838,3.53c0,0,0.419,8.257,2.034,15.436c0,0-6.15,3.911-9.094,1.556
		c-1.794-1.437-1.077-4.906,1.256-11.068C307.957,404.733,312.324,398.032,312.324,398.032L312.324,398.032z"/>
	<path fill-rule="evenodd" clip-rule="evenodd" d="M272.718,397.973c0,0,6.163-2.872,8.316-3.709c0,0,1.735,12.563,2.812,14.718
		c0,0,3.29-10.59,3.649-11.308l8.556-2.214c0,0,0.538,10.41,1.735,16.214c1.197,5.803,2.394,11.606,3.769,14.059
		c0,0-8.915,3.351-9.812,4.129c0,0-2.094-7-2.453-11.428l-5.504,11.667c0,0-4.068-9.034-4.667-11.188l0.239,9.394
		c0,0-6.102,2.632-10.53,1.496C268.829,429.802,272.718,400.485,272.718,397.973L272.718,397.973z"/>
	<path fill-rule="evenodd" clip-rule="evenodd" fill="#FFCB05" d="M273.675,398.69l6.581-2.932c0,0,2.333,13.043,3.291,15.196h0.718
		c0,0,3.41-9.991,4.188-12.145c0,0,5.804-1.855,6.641-2.095c0,0,0.599,8.257,1.616,14.18s3.41,14.657,3.41,14.657
		s-6.521,1.915-7.717,2.992c0,0-1.975-7.599-2.394-12.146l-1.017,0.3l-5.444,10.529c0,0-3.291-7.12-4.428-11.367
		c0,0-0.837,0.18-0.837,0.538c0,0.359,0.239,11.188,0.239,11.188s-5.265,2.334-8.316,1.316
		C270.206,428.903,273.436,400.545,273.675,398.69L273.675,398.69z"/>
	<path fill-rule="evenodd" clip-rule="evenodd" d="M263.146,406.469c0,0,6.162-3.65,8.556-5.026c0,0-1.316-3.769-3.709-5.563
		c-2.394-1.795-8.197-5.026-18.487,1.376c-10.29,6.401-5.983,14.777-1.795,16.153c4.188,1.376,7.06,0.001,12.804,1.316
		c5.744,1.316,6.222,2.871,4.128,4.487c-2.094,1.615-7.957,3.829-8.496,2.932c-0.538-0.897,1.556-3.111,1.556-3.111l-9.214-1.915
		c0,0-4.367,5.744-1.496,9.095c2.872,3.351,10.709,4.128,15.376,3.11c4.667-1.017,15.017-7.418,14.179-13.281
		c-0.837-5.863-9.333-8.975-13.94-8.795s-9.393,0.239-8.794-1.556c0.598-1.795,4.367-3.709,6.282-2.453
		C262.009,404.494,263.146,406.469,263.146,406.469L263.146,406.469z"/>
	<path fill-rule="evenodd" clip-rule="evenodd" fill="#FFCB05" d="M263.744,405.152c0,0,4.667-3.59,6.641-4.128
		c0,0-1.555-4.129-4.547-5.504c-2.992-1.376-8.675-2.333-15.556,2.333c-6.88,4.666-5.863,11.666-2.573,13.7
		c3.291,2.034,8.137,1.915,10.77,1.975s9.513,1.375,9.154,3.47c-0.359,2.094-3.47,4.308-6.342,5.205
		c-2.872,0.897-5.564,1.316-5.863-0.119c-0.299-1.437,0.897-2.514,0.897-2.514l-6.461-1.316c0,0-3.171,4.727-1.137,6.881
		s7.06,4.427,12.026,3.47s12.684-5.265,14.06-10.171c1.376-4.905-2.573-7.837-5.385-8.675c-2.812-0.837-7-1.854-12.563-1.675
		c-5.564,0.18-7-2.034-3.47-4.188c3.53-2.153,5.983-2.752,7.598-1.735C262.607,403.178,263.146,404.435,263.744,405.152
		L263.744,405.152z"/>
	<path fill-rule="evenodd" clip-rule="evenodd" d="M255.824,397.725c0,0,1.384-3.655,0.499-5.593
		c-0.886-1.938-2.547-3.544-7.476-2.547c-4.929,0.997-7.531,3.821-7.531,3.821s-6.203,0.775-7.089,0.554c0,0-2.381,1.274-4.43,2.16
		c-2.049,0.886-6.812,2.603-6.978,4.818s1.994,3.932,2.547,4.431c0.554,0.498,1.883,1.495,1.883,1.495s-1.439,0.941-1.439,1.661
		s0.332,1.329,0.332,1.329s-0.997,1.163-0.665,1.827c0.333,0.665,0.498,0.886,0.775,0.941c0,0-1.717,1.274-2.16,4.652
		c-0.442,3.378,0.499,6.755,2.548,8.86c2.049,2.104,5.538,4.651,10.466,1.052c0,0,3.212,2.326,7.31,2.382
		c4.098,0.055,9.026-1.994,9.026-5.372s-4.375-4.541-11.076-4.209l-0.11-0.332c0,0,3.323-1.772,4.375-4.541
		c0.707-1.86,2.085-4.599,1.27-8.997c0.269,0.153,0.582,0.247,0.945,0.247c1.994,0,1.883-1.329,2.215-2.104
		c0,0,0.554,3.267,1.606,4.264c1.052,0.997,3.212,1.163,4.375-0.609c0,0,0.886,0,1.052-1.495c0,0,1.495-0.831,1.55-2.326
		S258.814,398.5,255.824,397.725L255.824,397.725z M232.482,402.055c-0.546,0.574-0.995,1.513-0.995,1.513
		c-0.882-0.672-1.009-1.653-1.009-1.653c1.079-0.994,2.956-1.316,2.956-1.316C233.588,400.836,233.028,401.48,232.482,402.055
		L232.482,402.055z M248.514,399.718c-0.72,1.053,0.388,2.216,0.111,2.438c-0.225,0.18-1.141,0.358-1.657,0.687
		c-0.512-1.355-1.214-2.833-2.165-4.453c0,0,4.042-1.993,4.763-1.993c0.72,0,0.941,1.606,1.219,2.326
		C250.785,398.722,249.234,398.666,248.514,399.718L248.514,399.718z"/>
	<path fill-rule="evenodd" clip-rule="evenodd" fill="#00A1E4" d="M247.739,405.146c0,0,0.886,0.941,1.662,0.554
		c0.775-0.388,1.495-2.381,1.44-2.714c-0.055-0.332-0.499,0.333-0.443-0.11c0.056-0.443,0.333-1.163,0.72-0.886
		c0.388,0.276,0.166,0.442,0.443,1.605s1.329,4.375,1.938,4.651c0.609,0.277,2.104,0.222,2.548-0.608
		c0.443-0.831,0.332-0.721-0.166-1.219c-0.499-0.498-2.569-3.186-1.606-3.71c0.305-0.166,0.416,0.388,0.416,0.388
		s0.333-0.831,0.637-0.222c0.305,0.608-0.277,0.72-0.36,0.886s-0.083,0.665,0.222,0.997c0.304,0.332,1.717,1.412,1.8,1.689
		c0.083,0.276,0.111,0.83,0.111,0.83s0.72-0.775,0.415-2.907s-0.305-1.385,0.028-1.412c0.332-0.028,0.388,1.633,0.388,2.603
		c0,0,1.218-0.72,0.831-3.378s-2.298-3.711-2.99-3.987c0,0-0.36,0.609-0.748,0.276c-0.388-0.332-0.222-0.332,0.027-1.688
		c0.249-1.357,0.831-3.904-0.111-5.289c-0.941-1.384-2.852-2.076-6.701-1.356c-3.849,0.72-6.729,3.6-6.729,3.6
		s0.554,0.443-0.028,0.582c-0.581,0.138-0.609-0.25-1.024-0.582c-0.416-0.333-5.372-0.914-5.676,0.526
		c0,0.027-0.388,0.914-4.375,2.299c-3.987,1.384-6.368,3.045-6.479,4.762c-0.11,1.717,2.88,3.932,3.71,4.541
		s1.772,0.886,1.218,1.273s-0.665,0.388-1.273-0.11c0,0-1.772,1.827-1.052,2.326c0,0,0.388-0.443,0.443-0.775
		c0.055-0.333,0.499-0.555,0.665-0.056c0.167,0.498-0.222,0.388-0.609,0.941c-0.387,0.554-1.495,1.827-0.498,2.547
		c0,0,1.218-1.494,1.274-1.827c0.055-0.332-0.111-1.107,0.387-0.775c0.499,0.332,0.277,0.554,0.111,0.831s-0.665,1.163-0.665,1.163
		s1.163-1.274,2.824-0.997c0,0,1.551-1.771,2.714-2.049c0,0,0-0.831,0.775-0.831c0.775,0,0.831,0.166,1.883,0.498
		c1.052,0.333,2.16,0.056,2.492-0.608c0.333-0.665,0.166-1.385-0.332-1.717c-0.499-0.332-0.554-0.498-1.052-0.222
		s-0.831,0.609-1.385,0.276c-0.554-0.332-1.218-1.273-1.55-1.328c-0.333-0.056-1.329-0.111-1.44,0.276s-0.056,0.166-0.056,0.166
		s0.388,0.499-0.111,0.499c-0.498,0-1.938-1.772-2.713-3.212c-0.776-1.44-0.886-1.496-0.167-1.551c0.72-0.056,0.775,0.72,0.775,0.72
		s0.941-0.997,3.046-1.606c2.104-0.608,2.769-1.107,2.879-0.166s-0.11,0.443-0.554,0.499c-0.443,0.056-0.775,0.221-0.775,0.221
		s0.388,0.499,0.111,0.665s-0.388,0.332-0.775-0.056c0,0-1.052,1.551-1.218,1.606c0,0,3.157-0.498,6.092,1.107
		c2.935,1.606,6.978,2.658,8.03,2.548c0,0-0.277-2.658-2.16-5.981c-1.883-3.322-3.323-5.039-2.935-5.206
		c0.388-0.166,1.495,0.941,2.271,2.659c0,0,3.544-1.883,4.984-2.104c0,0-0.498-0.665,0.388-0.831
		c0.886-0.166,1.052,1.052,1.44,2.603c0.388,1.551,0.665,2.326,0.332,2.326c-0.332,0-0.554-0.388-0.554-0.388
		s-1.661,0.332-1.938,0.941s0.388,1.219,0.166,1.994c-0.222,0.774-1.44,1.439-1.828,1.384L247.739,405.146L247.739,405.146z"/>
	<path fill-rule="evenodd" clip-rule="evenodd" fill="#FFFFFF" d="M232.704,402.902c0,0-0.61,0.581-0.748,1.053
		c0,0-0.028,0.249,0.222,0.249c0.249,0,0.443-0.471,1.273-0.471s1.108,0.332,1.523,0.803c0.415,0.471,0.637,0.941,1.163,0.72
		s1.19-0.609,1.19-0.609s1.911,0.97,1.855,2.16s-0.941,2.16-2.769,1.938s-1.385-0.941-1.994-0.609s-2.63,1.219-2.879,2.298
		c0,0,1.689,0.36,2.603,2.853c0,0,1.219,0.858,2.326,1.024c1.108,0.166,1.413,0.276,1.689,0.166c0.277-0.111,0.72-0.499,0.637-0.775
		c-0.083-0.277-1.052-1.578-0.997-2.077c0.055-0.498,0.637-0.692,0.886-0.083s0.194,0.914,0.194,0.914s2.16,0.056,2.713,0.249
		c0.554,0.194,0.886,0.775,0.554,0.97c-0.333,0.193-0.942-0.582-1.551-0.471c0,0-2.215,2.215-3.018,2.492
		c0,0-0.443-0.084-0.471-0.36c-0.028-0.277-0.027-0.36-0.388-0.443c-0.36-0.083-2.132-0.498-3.046-0.969s-0.665-0.609-0.499-0.775
		s0.554-0.305,0.083-0.72c-0.47-0.416-1.717-1.385-3.406-1.08s-4.596,1.744-5.039,5.842c-0.443,4.099,1.44,7.892,4.541,9.803
		c3.101,1.91,6.673,0.803,7.559-0.97c0.886-1.771,1.024-3.71-0.416-5.288c0,0-0.803,0.111-3.322-1.495
		c-2.52-1.606-3.328-2.415-2.631-2.963c0.388-0.305,0.692,0.415,1.108,0.775c0.415,0.359,2.796,2.381,4.375,2.741
		s1.634,0.582,3.406,0.11c1.772-0.471,5.04-2.159,6.535-5.344s1.745-5.953,1.246-7.946c0,0-1.855-0.056-3.378-0.526
		c-1.522-0.471-3.101-0.997-5.482-2.243C235.971,402.598,233.618,402.847,232.704,402.902L232.704,402.902z"/>
	<path fill-rule="evenodd" clip-rule="evenodd" fill="#FFFFFF" d="M241.64,419.976c-0.977,0.489-2.271,1.839-2.788,2.069
		l-0.374-0.229l-0.172,0.315c0,0,1.092,0.69,1.092,0.834s-0.287,0.718-0.517,0.718s-0.546-0.229-0.546-0.229s0.518,1.609-0.632,2.96
		c0,0,4.081,2.385,7.529,2.185c3.449-0.201,6.983-1.812,7.099-3.535c0.115-1.725-0.661-5.145-9.455-4.655c0,0,0,0.833-0.345,0.862
		C242.186,421.298,241.64,419.976,241.64,419.976L241.64,419.976z"/>
	<path fill-rule="evenodd" clip-rule="evenodd" d="M250.356,377.165c0,0,2.905,1.043,2.905,3.277c0,2.234-0.67,2.979-1.416,3.575
		c0,0,0.373,1.49-0.67,3.128c-1.042,1.639-4.617,5.958-9.309,6.554s-7.745,0.67-9.384,0.224c0,0-2.83,0.67-5.287-0.224
		c-2.458-0.894-5.139-2.606-4.543-6.107c0,0-1.763-3.534-1.661-6.536c0.111-3.267,0.366-8.692,6.479-15.063
		c5.261-5.482,13.512-6.147,17.077-5.584c4.479,0.707,8.201,2.757,7.597,6.181c-0.447,2.532-6.926,3.649-8.043,3.575
		c0,0,0.075,1.563,0.67,2.01c0,0,4.841,0.819,5.66,2.532S250.356,377.165,250.356,377.165L250.356,377.165z"/>
	<path fill-rule="evenodd" clip-rule="evenodd" fill="#FFFFFF" d="M230.323,384.762c0,0,1.49-4.692,5.139-7.15
		c0,0-0.447-1.191,0.149-2.383c0.595-1.192,1.489-1.564,3.276-0.67c0,0,0.379-0.923,1.098-0.425c0,0,1.163-2.16,3.544,0.332
		c0,0,3.932,0,4.153,1.218c0.221,1.218-0.166,0.941-0.166,0.941l0.498,0.554c0,0,0.609-0.277,1.218-0.111
		c0,0,0.72-0.831,0.443-1.605c-0.277-0.776-1.44-1.938-4.929-2.659c-3.489-0.719-8.362-0.997-9.082-0.719
		c-0.72,0.276-1.772,0.608-1.717-0.111s0.554-0.388,2.104-0.443c1.55-0.056,7.31,0.388,7.31,0.388s-0.554-1.052-0.554-1.606
		c0,0-3.212,0.111-4.043-0.221c-0.831-0.333-1.827-0.775-1.218-1.496c0.609-0.72,0.499,0.333,1.218,0.554
		c0.72,0.222,3.655,0.443,6.59,0s5.538-1.828,5.372-3.821c-0.166-1.993-3.101-4.596-8.251-4.541
		c-5.15,0.055-12.073,1.716-16.89,8.362c-4.818,6.646-3.434,15.617-2.271,16.946C223.317,386.095,224.703,382.652,230.323,384.762
		L230.323,384.762z"/>
	<path fill-rule="evenodd" clip-rule="evenodd" fill="#00A1E4" d="M231.292,384.932c0,0,1.362-4.008,4.17-7.32
		c0,0,0.703,0.897,0.98,0.177s-0.609-0.333-0.332-1.938c0.276-1.606,0.775-0.997,1.605-0.831c0.831,0.166,1.33,0.222,1.33-0.056
		c0-0.277-0.157-0.405-0.157-0.405s0.544-0.259,0.821-0.148c0,0-0.111,0.499,0.166,0.554c0.277,0.056,0.222-0.442,0.775-0.83
		c0.554-0.388,0.831-0.443,1.606,0.442c0.775,0.887,1.163,0.775,1.218,0.333s0.221-0.333,0.221-0.333s2.714,1.496,3.877,2.492
		c0,0-0.886,0.277-1.108,1.108s-0.388,0.72-0.388,0.72s-1.384-2.658-2.879-2.326c-1.496,0.333-1.551,1.219-1.551,1.219
		s-1.052-1.385-2.271-1.108s-2.215,0.997-2.049,2.548c0.166,1.55,0.886,2.824,2.603,3.267c1.717,0.443,2.603,0.277,3.544-0.72
		c0,0-0.111,0.664,0.387,0.775c0.499,0.11,0.941-0.499,1.717-1.606c0.775-1.107,1.439-2.16,1.662-2.492
		c0.221-0.333,0.997-0.886,1.827-0.886c0.831,0,3.6,1.329,3.102,3.654c-0.499,2.326-2.714,3.212-4.375,3.212
		c-1.662,0-2.603-0.277-2.492,0.554c0.111,0.831,0.775,0.72,1.44,0.554s1.218,0.111,2.381-0.277c1.163-0.388,1.772-0.72,1.772-0.72
		s0.388,1.605-1.495,3.544s-5.815,4.818-10.189,5.261c-4.375,0.443-6.203-0.11-6.203-0.11s0.277-1.219-0.388-1.163
		c-0.664,0.055-0.553,0.332-1.329,0.72s-3.821,0.609-6.147-1.44c-2.326-2.049-1.439-5.427-0.332-5.87
		c1.107-0.443,2.824-0.941,5.261,0.277s1.828,1.163,2.381,0.775s0.333-0.665-0.111-0.997
		C231.901,385.209,231.292,384.932,231.292,384.932L231.292,384.932z"/>
	<path fill-rule="evenodd" clip-rule="evenodd" d="M227.582,390.359c0,0-0.443,0.997,0.277,1.384
		c0.72,0.388,2.603,0.997,2.769,0.388c0.167-0.609-0.222-0.831-0.775-0.665c-0.554,0.166-1.717-0.055-1.717-0.997
		c0-0.941,1.052-1.218,1.717-0.72c0.665,0.499,1.273,1.218,1.495,0.775c0.221-0.443-0.056-0.72-0.609-0.886
		c-0.554-0.166-1.495-0.775-2.769-0.997c-1.274-0.222-3.268-0.72-3.212-0.222c0.056,0.499,0.333,0.72,0.554,0.554
		c0.221-0.167,1.716-0.056,1.716-0.056S226.142,390.082,227.582,390.359L227.582,390.359z"/>
	<path fill-rule="evenodd" clip-rule="evenodd" d="M248.459,386.871c-0.222-0.388-0.333-0.443-1.107-0.056
		c-0.775,0.388-3.71,1.273-5.372,1.052c-1.556-0.208-3.502-1.29-3.832-1.653c0.039-0.028,0.08-0.051,0.122-0.063
		c0.388-0.111,0.664,0,0.554-0.387c-0.089-0.311-0.665-0.388-1.606,0.276c-0.941,0.665-0.997,0.998-0.277,1.053
		c0.361,0.027,0.597-0.183,0.792-0.412c0.499,0.35,0.947,0.928,1.866,1.132l-0.055,0.166c0,0-3.434,3.766-0.997,4.596
		c2.437,0.831,5.87-1.827,7.919-4.596C246.465,387.978,248.681,387.258,248.459,386.871L248.459,386.871z"/>
	<path fill-rule="evenodd" clip-rule="evenodd" fill="#ED1847" d="M238.768,390.415c0,0-0.609,0.609-0.277,1.606
		c0,0,2.16,0.499,2.381-0.665c0.222-1.163-0.443-1.439-1.55-1.55l-0.277,0.332c0,0,1.107,0.499,0.664,0.997
		C239.266,391.633,239.765,390.636,238.768,390.415L238.768,390.415z"/>
	<path fill-rule="evenodd" clip-rule="evenodd" fill="#FFFFFF" d="M243.201,381.466c0,0-0.884,1.344-2.563,0.834
		c0,0,0-1.842-0.996-2.265c-0.996-0.423-1.505-0.049-1.58,0.623c0,0-0.958-1.356-0.149-2.625c0.809-1.27,1.7-1.059,2.563-0.647
		C241.26,377.758,242.778,380.346,243.201,381.466L243.201,381.466z"/>
	<path fill-rule="evenodd" clip-rule="evenodd" fill="#FFFFFF" d="M239.443,381.815c0,0-0.311-0.137-0.411-0.299
		C239.032,381.516,239.331,381.019,239.443,381.815L239.443,381.815z"/>
	<path fill-rule="evenodd" clip-rule="evenodd" fill="#FFFFFF" d="M242.766,379.849c0,0-0.66-1.095-0.921-1.369
		c0,0,0.062-1.581,1.307-1.556c1.244,0.025,2.215,1.27,2.663,2.19c0,0-0.336,0.871-1.145,1.481
		C244.669,380.595,243.574,378.629,242.766,379.849L242.766,379.849z"/>
	<path fill-rule="evenodd" clip-rule="evenodd" d="M317.106,393.366c0,0-1.671,3.494-1.316,5.671s2.076,3.393,5.063,3.089
		c2.988-0.304,10.381-2.734,12.912-3.291c2.532-0.558,3.898-0.963,3.898-0.963s2.178,0.507,3.443,0.76s5.569,1.316,8.102,1.469
		c2.532,0.151,8.608-0.304,13.114-5.469l0.304,0.253c0,0-0.811,0.76-1.063,1.772c-0.253,1.013-0.303,4.76,3.747,5.722
		c4.051,0.962,14.007-1.938,16.152-8.911c1.215-3.95-2.025-8.203-4.811-7.849c-2.784,0.354-5.164,1.165-7.189,3.443
		c0,0-0.658-2.937-1.52-3.241c0,0,2.127-6.076-0.506-8.608s-6.33-0.811-7.089,0.861c0,0-2.691-5.8-10.532-3.494
		c-3.442,1.013-4.607,5.013-3.747,6.633c0.861,1.62,0.911,1.975,0.911,1.975s-0.506-1.417-3.544-1.013c0,0,0.405-3.595-1.367-5.316
		c0,0,1.165-3.089-1.012-4.354c-2.178-1.266-3.697-1.367-4.861-0.607c0,0-0.354-2.127-6.126-0.102c0,0-1.014-0.759-0.811-1.114
		c0.202-0.354,8.456-4.304,7.443-7.19s-4.304-4-11.089-1.671c-6.785,2.33-9.267,6.126-10.887,10.077
		c-1.62,3.949-1.418,9.063-1.418,9.063s-1.974,0-1.671,2.38c0,0-1.569,1.215-1.164,2.279s0.962,1.114,1.62,3.038
		s0.354,2.582,1.013,3.19C313.766,392.455,316.549,393.619,317.106,393.366L317.106,393.366z"/>
	<path fill-rule="evenodd" clip-rule="evenodd" fill="#FFFFFF" d="M328.905,372.302c0,0-0.607-0.253-0.86-0.81
		c0,0-2.735,1.468-3.646,1.215c-0.911-0.253-1.315-0.81-0.86-1.418c0.455-0.607,0.506-0.202,0.962,0.051s1.063,0.557,3.494-0.811
		c2.43-1.367,7.798-4.506,7.24-6.886c-0.557-2.38-4.151-2.532-8.253-1.368c-4.102,1.165-9.368,3.241-11.596,10.178
		c-2.228,6.937,0,12.861,0,12.861s0.151-1.975,2.38-1.924c2.229,0.051,2.583,1.823,1.823,2.734s-0.709,1.975-0.709,1.975
		s3.798-0.456,3.848,2.076c0,0,1.469-1.165,2.025-1.215c0,0-0.81-4.253,0.912-8.102c0,0-1.655-1.108-1.063-2.785
		c0.304-0.861,2.531-1.013,2.531-1.013s0.051-0.456,0.658-0.811c0,0-0.145-1.382,1.469-1.721c0.962-0.203,1.468,0.304,1.468,0.304
		s2.684-2.583,3.089-0.608h0.305c0,0-0.051-0.759,1.113-1.822c0,0-0.658-1.418-4.405-0.203c-3.747,1.215-6.836,2.785-7.949,3.595
		c-1.114,0.811-1.266,1.52-1.469,1.165c-0.202-0.354-0.506-0.557,1.114-1.57S327.134,373.112,328.905,372.302L328.905,372.302z"/>
	<path fill-rule="evenodd" clip-rule="evenodd" fill="#00A1E4" d="M341.664,377.568c0,0,1.57,1.519,1.014,4.304
		s-1.266,4.457-1.722,4.811c-0.456,0.354-4.811,2.835-5.772,4.76l-7.494,2.025c0,0-0.709-0.304-0.455-0.76
		c0.253-0.456,1.164-0.456,1.924-0.405c0.76,0.05,0.455-0.557-0.304-0.557c-0.76,0-3.342,0.202-4.507,1.165
		c-1.164,0.962-0.455,1.316-0.152,1.013c0.305-0.304,1.267-1.013,1.267-1.013s-0.456,0.81,0,1.013l-2.178,0.607
		c0,0-1.771-1.569-0.304-3.392c1.469-1.823,4.658-1.924,5.621-1.671c0.962,0.253,1.924,0.961,2.126,0.303s-0.759-1.417-2.38-1.417
		c-1.62,0-2.431,0.101-2.431,0.101s-0.81-4.304-0.05-7.494c0,0,0.606,0.658,0.962,0.203c0.354-0.456,0.202-0.81-0.607-1.215
		c-0.811-0.405-1.419-1.215-0.811-1.874c0.607-0.658,2.025,0.152,2.431-0.456c0.405-0.608-0.354-0.506-0.354-0.506
		s0.101-0.456,0.455-0.608c0,0,0.507,0.456,0.558,0.102s-0.152-0.962,0.404-1.165c0.558-0.203,1.368,0.456,1.672,0.253
		s0.354-0.658,0.354-0.658s1.52-0.607,3.089-0.354c0,0,0,0.557,0.254,1.165c0,0-2.229-0.152-1.671,0.405
		c0.557,0.557,1.063-0.051,2.025,0.405c0,0,0.202,1.012,0.253,1.417c0,0-0.963,0.304-0.658,0.658
		c0.304,0.354,0.709,0.152,0.709,0.152s-0.558,0.607-0.152,0.861c0.405,0.253,0.607,0.051,0.658-0.962s-0.202-2.481-0.455-3.241
		c-0.254-0.759-0.152-2.38,1.266-2.937c1.418-0.557,4.152-0.355,4.811,1.569c0.657,1.924-0.203,3.443-1.267,4.557
		c-1.063,1.114-2.228,1.215-1.771,1.924c0.455,0.709,0.962,0.558,1.873-0.708S341.411,378.429,341.664,377.568L341.664,377.568z"/>
	<path fill-rule="evenodd" clip-rule="evenodd" d="M333.057,379.188c0,0-0.557,1.013-1.468,1.266
		c-0.912,0.253-1.621-0.102-1.722,0.152c-0.102,0.253-0.102,0.709,0.253,0.861s1.367,0.456,2.684-0.608
		c1.316-1.063,1.114-1.924,0.962-2.126c-0.151-0.203-0.557-0.051-0.557-0.051s-3.241-1.674-3.241-0.354
		c0,0.354,0.355,0.152,1.317,0.202C332.247,378.581,332.702,378.936,333.057,379.188L333.057,379.188z"/>
	<path fill-rule="evenodd" clip-rule="evenodd" d="M331.689,384.809c0,0,2.431,1.063,4.963,0.405
		c2.531-0.658,3.798-2.684,4.304-3.443s0.405-1.367,0.962-1.063c0.557,0.304-0.557,2.025-1.722,2.937s-3.342,3.342-8.607,1.772
		c0,0-0.304,0.101-0.304,0.304s-0.051,0.861-0.456,0.607s-0.456-0.607,0.051-1.469c0.506-0.86,0.709-1.215,1.063-1.063
		C332.297,383.948,331.791,384.202,331.689,384.809L331.689,384.809z"/>
	<path fill-rule="evenodd" clip-rule="evenodd" fill="#00A1E4" d="M342.285,385.94c0,0,2.895-1.78,4.191-1.991
		c0,0,0.182-0.996-3.166-1.176C343.311,382.773,342.888,385.216,342.285,385.94L342.285,385.94z"/>
	<path fill-rule="evenodd" clip-rule="evenodd" fill="#00A1E4" d="M313.541,382.955l-0.211-1.146c0,0-1.056-0.241-1.025,1.146
		C312.305,382.955,313.089,382.412,313.541,382.955L313.541,382.955z"/>
	<path fill-rule="evenodd" clip-rule="evenodd" fill="#00A1E4" d="M319.182,388.685c0,0,1.931-0.302,2.443,0.905
		c0.512,1.207,0.09,1.81-0.091,2.292c-0.181,0.482-0.754,1.779,0.482,3.076c0,0-0.693,0.091-0.604,0.543
		c0.091,0.452,0.12,0.633,0.483,0.452c0.361-0.181,0.09-0.422,1.267-0.663c1.176-0.242,3.438-0.905,5.278-1.297
		c1.84-0.392,7.419-1.598,8.082-1.9c0.664-0.302,0.453-0.694,0.242-0.814c-0.212-0.121-0.393-0.06-0.393-0.06
		s0.12-0.814,3.228-2.896c3.106-2.081,6.967-3.408,8.113-3.68c0,0,0.513,0.664,0.633,1.508c0,0-2.925,2.111-4.102,5.64
		c-1.176,3.529-0.995,4.012,0.03,6.847c0,0-3.921-1.086-5.882-0.936c0,0-0.15-0.513-0.452-0.543c-0.302-0.029,0-0.452-4.464,0.814
		c-4.464,1.268-11.853,3.378-13.21,3.228s-3.559-0.633-3.649-3.016c-0.091-2.383,1.779-5.249,1.779-5.581
		c0-0.332-0.03-0.573-0.482-0.542c-0.453,0.03-0.482,0.301-0.814,0.211s-2.413-0.151-3.137-0.935s-0.814-1.448-0.936-2.232
		c-0.12-0.784-0.482-1.779-0.995-2.503s-0.965-1.237-0.724-1.87s0.995-1.297,1.447-1.267c0.453,0.03,1.056,0.693,1.056,0.693
		s0.302,2.051,0.936,3.077c0.633,1.025,0.904,1.207,0.904,1.207s-0.422,0.301-0.181,0.664c0.241,0.362,0.604,0.513,0.693,0.241
		c0.091-0.271,0.573-1.387,0.362-2.443s-0.447-1.61-0.332-1.84c0.302-0.603,0.755-0.995,1.568-0.965
		c0.814,0.03,1.568,0.784,1.297,1.417c-0.271,0.634-0.935,1.87-0.784,2.474c0.15,0.603,0.03,1.267,0.453,1.448
		c0.422,0.181,0.844,0,0.693-0.241C319.271,388.957,319.241,388.896,319.182,388.685L319.182,388.685z"/>
	<path fill-rule="evenodd" clip-rule="evenodd" fill="#FFFFFF" d="M364.882,384.833c0,0,2.063-0.08,2.623,0.561
		c0,0,0.761-2.163,0.62-4.525c-0.14-2.363-1.782-4.446-3.864-4.065c-2.083,0.381-3.064,1.422-3.385,2.203c0,0,1.44,2.368,1.19,7.851
		c0,0,2.243-2.035,2.825-3.323c0.581-1.288,0.664-0.955,1.038-0.831s0.249,0.623-0.166,0.956c0,0,0.042,0.208,0.374,0.208
		s0.456,0.457,0.124,0.499s-1.121-0.083-1.121-0.083L364.882,384.833L364.882,384.833z"/>
	<path fill-rule="evenodd" clip-rule="evenodd" fill="#FFFFFF" d="M348.402,386.69c0,0-1.536,1.039-2.616,3.281
		s-1.869,4.568-1.744,5.939c0.124,1.37,1.038,3.032,1.038,3.032s4.859,0.706,7.642,0.166c2.783-0.54,6.521-1.703,9.221-4.943
		c0,0-0.623,0.125-0.789,0.333c-0.166,0.208-0.415-0.416-0.166-0.831c0.249-0.416,2.118-1.953,2.699-2.036
		c0.582-0.083,0.789,0.54,0.457,0.706c-0.332,0.167-1.121,0.873-1.121,0.873s2.243,1.744,2.326,2.783
		c0.083,1.038-0.914,0.582-1.08,0.374c-0.166-0.208-0.499-1.329-0.872-1.495c0,0-1.288,0.997-1.288,1.994s0.291,3.281,2.824,4.527
		c2.534,1.246,9.844-0.789,12.17-3.198c2.325-2.409,5.149-6.563,1.495-10.383c-3.655-3.821-8.93,2.16-8.93,2.16
		s0.747,5.316,0.083,5.524c-0.665,0.208-0.831,0-0.706-1.412c0.124-1.412,0.377-6.624-2.035-7.975
		c-1.038-0.582-2.16-0.54-2.658-0.416c0,0-1.662,2.742-3.115,3.448c0,0-1.08,3.572-3.655,4.901s-5.689,1.371-5.689,1.371
		s-0.374,0.665-0.54,0.665s-0.498-0.582-0.498-0.582s-0.79,0.872-0.997,0.457c-0.208-0.415,0.623-0.955,0.623-0.955
		s-1.828-0.457-1.994-2.533C348.319,390.387,349.191,388.56,348.402,386.69L348.402,386.69z"/>
	<path fill-rule="evenodd" clip-rule="evenodd" fill="#FFFFFF" d="M360.53,388.767c0,0,1.454-2.658,0.623-6.479
		c-0.831-3.821-3.779-7.393-7.601-7.393s-6.646,2.492-6.895,4.112c-0.249,1.62,0.415,2.99,0.955,3.613s1.744,3.24,1.661,4.984
		c-0.083,1.745-0.415,5.898,0.872,6.438c1.288,0.54,7.311,0.581,9.304-3.613c1.994-4.195-0.415-8.806-1.661-10.55
		c-1.246-1.745-4.07-3.156-7.186-2.16c-3.114,0.997-3.571,1.869-3.571,1.869s-0.249-0.914,1.702-1.703
		c1.952-0.789,5.358-1.786,8.183,0.499C359.741,380.668,360.779,385.154,360.53,388.767L360.53,388.767z"/>
	<path fill-rule="evenodd" clip-rule="evenodd" d="M350.937,388.186c0,0,2.49-1.304,4.402-1.495c0.415-0.042,1.038,0.291,1.329,0
		s0.124-0.914-1.578-0.498c-1.703,0.415-4.029,1.287-4.361,1.62C350.396,388.144,350.604,388.227,350.937,388.186L350.937,388.186z"
		/>
	<path fill-rule="evenodd" clip-rule="evenodd" d="M354.633,387.438c1.04-0.107,3.488-0.208,4.111,0
		c0.623,0.208,0.083,1.08-0.207,0.831c-0.291-0.25-1.412-0.582-2.575-0.54s-3.073,0.415-3.281,0.457
		S352.224,387.688,354.633,387.438L354.633,387.438z"/>
</g>
</svg>
