<?xml version="1.0" encoding="utf-8"?>
<!-- Generator: Adobe Illustrator 14.0.0, SVG Export Plug-In . SVG Version: 6.00 Build 43363)  -->
<!DOCTYPE svg PUBLIC "-//W3C//DTD SVG 1.1//EN" "http://www.w3.org/Graphics/SVG/1.1/DTD/svg11.dtd">
<svg version="1.1" id="Layer_1" xmlns="http://www.w3.org/2000/svg" xmlns:xlink="http://www.w3.org/1999/xlink" x="0px" y="0px"
	 width="612px" height="792px" viewBox="0 0 612 792" enable-background="new 0 0 612 792" xml:space="preserve">
<g>
	<polygon fill-rule="evenodd" clip-rule="evenodd" fill="#FFFFFF" points="209,300 401.756,300 401.756,492.756 209,492.756 
		209,300 	"/>
	<path fill-rule="evenodd" clip-rule="evenodd" d="M392.072,382.266c1.674-1.073,1.674-2.875-0.687-4.72
		c-2.359-1.845-4.676-3.089-6.221-2.96c-1.544,0.128-5.749,0.901-9.224,2.875s-7.294,5.448-5.792,11.111
		c0,0-0.644,2.703,2.188,3.861c0,0-2.961,0.343-3.347,0.687c0,0-1.459-1.845-5.491-0.644c0,0-5.063-0.3-7.595,0.215
		c0,0,0.601-0.815,0.644-1.374c0,0,2.531-2.316,1.888-5.834c-0.644-3.518-2.917-8.108-7.25-9.91
		c-4.333-1.802-6.093-0.901-9.353,0.472c-3.261,1.373-4.505,4.118-3.689,5.105c0.814,0.987,3.775,1.116,5.92,0.729l-0.129,0.472
		c0,0-4.977,1.244-3.86,3.519c0,0-3.905,1.973-0.559,4.762c0,0-0.558,3.775,6.692,4.248c0,0-7.293,2.445-9.481,4.375
		c0,0-1.329-0.986-2.273-0.815c0,0-0.944-0.943-1.588-1.115c0,0,0.729-1.158-1.716-5.019c0,0,2.017-2.875,0.814-5.492
		c0,0,2.403,0.386,3.519-0.729c1.115-1.115,1.759-2.617,0.558-4.547c0,0,0.301-2.016-1.673-3.003
		c-1.974-0.987-4.806,0.643-5.02,0.686c-0.215,0.043-0.43-0.043-0.43-0.043s-0.12-0.266-0.701-0.257
		c0.938-0.113,3.193-0.481,3.833-1.458c0.815-1.244,0.858-2.403-1.415-3.218c-2.274-0.815-4.806-0.644-5.964-0.128
		c-1.158,0.515-6.264,2.273-8.795,7.293s0.558,8.838,0.558,8.838s-1.029,0.386-2.574,0.429c-1.544,0.043-4.161,0.558-4.161,2.488
		c0,0-2.273-1.33-5.534-0.729c0,0,2.445-3.046,1.888-6.735c-0.558-3.69-1.673-7.336-6.049-9.524
		c-4.376-2.188-10.04-0.214-10.254,1.458c-0.215,1.673,0.472,2.274,2.317,3.046c1.845,0.772,3.089,1.158,3.089,1.158l-0.601,0.429
		c0,0-0.601-0.515-2.188,0c-1.588,0.515-2.532,1.244-1.459,2.145c0,0-1.329,1.03-2.702,1.502c0,0-0.257-1.888-0.858-2.145
		c-0.601-0.258-1.974-0.386-3.347,1.158c-1.373,1.545-0.472,3.818,1.416,4.247c0,0-0.601,2.274,2.403,4.248
		c0,0-1.933-0.558-3.733,2.102c0,0-0.258-0.515-1.03-0.515s-2.445,0.257-2.96,1.03c-0.361,0.542-0.637,1.251-0.771,1.627
		c-0.056-0.014-0.109-0.027-0.173-0.04c-1.63-0.344-6.864-0.944-6.864-0.944s0.687-0.257,0.729-0.729c0,0,3.132-0.987,2.488-2.402
		c0,0,2.017-1.673,0.858-2.317c0,0,0.729-2.102-1.416-2.06c0,0,0.429-2.059-1.116-2.617c0,0,3.003-2.402-3.775-3.174
		c0,0-0.344-0.601-0.043-1.073c0,0,5.449-0.257,5.621-2.102s-1.845-4.419-7.336-4.291c-5.492,0.129-9.997,3.475-11.927,7.68
		c-1.931,4.205-0.687,6.736-0.086,7.808c0,0-0.687,1.373,0.815,2.574c0,0,0.472,1.802,1.759,2.274c0,0-0.215,0.086-0.128,0.515
		c0,0-2.531,0.257-3.947,0.515c0,0-0.176-1.708-1.63-1.501c-0.3,0.042-0.128-0.515,0.043-0.772c0.172-0.258,0.515-1.244-0.815-1.287
		s-2.316,0.472-2.188,1.201s0.257,0.815,0.257,0.815s-1.759-0.042-2.488,0.601c0,0-4.376-0.558-6.479-0.215
		c0,0,4.591-2.445,3.604-5.491c0,0,2.103-3.218-1.501-3.904c0,0,0.987-1.115,0.129-1.888c-0.858-0.772-1.716-1.459-4.72-1.287
		l-0.214-0.515c0,0,5.32-0.858,5.663-2.488s-0.772-3.261-4.977-3.904c-4.205-0.644-8.022,1.501-10.769,4.376
		c-2.746,2.874-4.762,9.653-0.558,14.115c0,0,2.017,3.089,5.877,1.759l0.3,0.257c0,0-5.277,1.115-8.452,1.845
		c0,0-0.6-1.115-1.844-0.857c0,0,0.043-0.43,0.3-1.073c0.257-0.643-0.064-2.102-1.984-1.544s-2.521,1.974-1.791,2.703
		c0.729,0.729,1.072,1.158,1.072,1.158s-2.937,1.544-3.775,3.132c-0.839,1.587,0.129,2.23,0.129,2.23s-1.072,2.574,1.802,2.231
		c0,0,0.515,0.9,1.845,0.644c1.33-0.258,5.148-1.588,5.449-4.634c0,0,3.904-1.201,5.92-1.545c0,0-0.429,0.559-1.33,1.03
		c0,0-3.218-0.772-2.36,2.445c0,0-0.558,1.458,1.072,2.789l-0.729,0.128c0,0-1.501-1.974-3.732-1.072
		c-2.231,0.9-3.647,3.089-1.802,6.778c1.845,3.689,7.25,5.878,9.696,3.99c2.445-1.888,0.343-5.02-0.644-5.706
		c0,0,3.175-0.472,2.703-2.703c0,0,1.287,0.301,2.188,0.129c0,0,0.429,0.301,1.116,0.172c0,0,0.257,0.601,0.171,1.287
		c0,0-2.96,3.132-0.987,5.319c1.974,2.188,6.564,2.488,10.983-2.145c4.419-4.634,0.258-8.666-1.716-8.58
		c-1.974,0.085-3.175,0.857-3.99,2.145c0,0-0.042-1.459-1.93-1.502c0,0,1.115-3.903,0.085-5.706c0,0,2.617-0.472,3.775-0.128
		c0,0-0.515,2.745,1.931,2.273c0,0,1.673,1.373,2.96,0.472c0,0,1.716,0.644,3.217-1.244c0,0,1.288,0.172,1.759-0.687
		c0,0,5.834-0.3,7.937,0.043c0,0-0.128,1.716-0.558,2.789c0,0-1.707-0.346-1.802,1.373c-0.042,0.772,0.386,1.63,1.673,1.716
		c0,0,0.601,1.458,2.231,1.716c0,0-0.386,0.344-1.544,0.644c0,0-1.202-1.673-3.518-0.687c-2.317,0.987-3.432,3.304-1.716,5.921
		c1.716,2.617,6.35,4.29,8.066,3.99c1.716-0.301,2.746-1.846,2.746-1.846s5.406,2.402,8.065,0.473
		c2.66-1.931,2.103-4.548-0.042-5.492c-2.146-0.943-2.532-1.243-2.532-1.243s1.116-1.244,1.03-1.975
		c-0.085-0.729-0.815-1.802-1.458-2.23c0,0,2.102-2.188-0.729-5.277c0,0,2.617,0.344,3.518,0.645
		c0.033,0.011,0.073,0.02,0.117,0.028c-0.055,0.524,0.132,0.981,0.741,1.259c0,0-0.3,1.587,1.373,1.759c0,0,0.815,1.373,2.617,0.472
		c0,0,1.588,0.172,2.146-0.772c0,0,1.973,0.129,2.316-1.201c0,0,2.188-1.072,1.116-2.574c-1.073-1.502,0-0.128,0-0.128
		s-0.086-1.202-0.472-1.374c0,0,1.202-0.686,1.673-0.9c0.472-0.215,1.158-0.3,1.158-0.3s0.815,0.042,1.802,0.686
		c0,0-2.789,3.904-1.33,6.865c0,0-0.386,2.359,0.429,4.29c0,0-1.287,1.931-0.858,3.946c0.429,2.017,1.459,5.577,4.591,5.535
		c3.131-0.043,5.534-1.889,5.148-3.775c-0.386-1.888-0.901-1.459-1.716-3.09c-0.815-1.63-1.373-3.774-2.273-3.989
		s-0.343-0.086-0.343-0.086s0.944,0.043,1.416-0.129c0,0,1.073,3.261,3.046,3.175c1.973-0.085,2.96-1.072,2.96-1.072
		s1.458,2.445,3.947,1.974c2.488-0.473,4.591-1.072,3.904-4.548c-0.687-3.475-5.449-8.237-9.095-5.491c0,0-0.515-0.644-0.815-1.03
		c-0.301-0.386-0.343-2.016-0.343-2.016s1.63-1.459,3.518-2.017c1.888-0.558,2.96,0.086,2.96,0.086s-0.987,0.644-0.429,1.415
		c0.558,0.772,1.158,0.772,0.814,1.201c-0.343,0.43-0.472,1.888,1.115,1.674c0,0,0.559,0.815,1.159,0.687
		c0,0,0.257,0.857,1.544,0.386c0,0,0.943,1.115,2.574-0.301c0,0-0.258,0.387,0.258,0.43c0.515,0.043,0.986-0.129,1.458,0.558
		c0.473,0.687-0.257,1.115,0.772,1.716c1.03,0.601,2.832,0.772,2.832,0.772l0.644,0.987l-0.215,0.042c0,0-1.416-1.501-3.175-0.857
		s-1.416,0.772-1.416,0.772s-0.729,0.729-1.072,1.673c-0.344,0.944-0.601,2.402,0,2.875c0.601,0.472,1.201,0.386,1.201,0.386
		s0.515,0.558,1.115,0.771c0,0-0.558,2.06,0.129,2.66s0.901,0.858,1.63,0.815c0,0,1.502,1.974,3.604,2.103
		c2.103,0.128,6.779-1.674,2.617-6.779c0,0,1.287-1.072,1.202-2.145c-0.086-1.072-0.729-2.875-0.729-2.875s0.429-0.257,1.329,0
		c0.901,0.258,2.961-0.6,2.789-1.458s-0.644-1.33-0.344-1.845c0.301-0.516,0.815-0.559,0.987-0.901s-0.258-0.729-0.258-0.729
		s1.373,0.644,2.36-0.386c0,0-0.172,0.257,0.214,0.729c0.387,0.472,0.43,0.772,0.086,0.857c-0.343,0.086-1.373,0.687-0.687,1.33
		s1.33,0.601,1.33,0.601s-0.644,0.901,0.601,1.674c0,0,0.172,0.601,1.159,0.687c0,0,2.102,0.986,2.316-1.03l0.343-0.129
		c0,0,0.987,0.772,1.759,0.43c0.772-0.344,0.172-1.158,0.516-1.545c0.343-0.386,0.9-0.515,1.029-1.201s0.129-1.029,0.129-1.029
		s2.745-1.846,4.462-2.403c0,0-0.215,0.473,0.128,1.931c0.344,1.459-0.214,2.317-0.644,3.004c-0.429,0.687-1.158,2.574-0.429,3.432
		c0.729,0.858,2.103,1.459,3.69,1.33c0,0,0.128,0.644,0.472,0.858c0,0-2.703,0.643-3.132,2.188s0.687,3.947,3.99,3.99
		c3.303,0.043,8.752-2.103,8.881-5.063s-3.089-3.646-4.376-2.746c0,0-0.944-0.214-0.815-0.686c0.129-0.473,0.515-0.729,0.515-0.729
		s2.146-0.301,2.917-1.201c0,0,1.717,0.171,2.274-0.987s0.215-2.402-0.814-2.66c0,0,0.129-3.646-1.888-5.534
		c0,0,3.603-0.729,6.006-0.558c0,0,0.086,0.515,0.558,0.772c0,0-0.857,0.729-1.416,0.857c-0.558,0.129-1.415,0.772-0.986,1.674
		c0,0-1.115,1.115-0.215,1.845c0.81,0.655,2.204-0.108,2.636-0.488c-0.237,0.26-0.739,0.916-0.233,1.389
		c0.645,0.601,1.845,0.944,2.103,0.344c0.257-0.601,0.344-1.03,0.344-1.03s0.128,0.559,0.814,0.645
		c0.687,0.085,1.673-0.344,1.716-0.858c0.043-0.516-0.3-0.987-0.215-1.33c0.086-0.344,0.729-0.772,0.729-0.772
		s1.287-0.558,1.545-1.201c0,0,0.815-0.301,1.029-0.558c0,0,1.03-0.257,1.201-0.858l0.644-0.128c0,0-2.102,1.759-2.316,2.102
		c0,0-1.329,0.387-1.716,1.072c-0.387,0.687-0.644,1.416-0.086,1.974c0,0-0.729,1.631,0,2.36c0.729,0.729,2.017,1.587,3.604,1.973
		c0,0,0.215,0.43-0.343,0.601c0,0-1.845-1.673-3.732-0.9s-3.132,1.931-2.832,3.518c0.301,1.588,0.688,4.118,4.033,5.749
		c3.347,1.63,7.251,1.674,7.895-1.287c0,0,2.617,2.316,5.877,2.359c3.261,0.043,5.621,0.129,6.179-2.617
		c0.558-2.745-1.416-4.204-5.277-5.19c0,0,1.244-1.931,0.343-3.003c-0.9-1.073-2.617-2.274-4.161-2.488c0,0,0.429-1.115,0.386-2.403
		c-0.043-1.287-0.043-1.287-0.043-1.287s3.433,2.403,4.849,2.617c0,0-0.429,1.845,1.029,2.875c1.459,1.029,2.446,1.888,3.947,1.416
		c0,0,2.231,0.429,2.103-1.287c0,0,0.944-0.215,0.858-1.33c-0.086-1.116-0.772-3.304-1.674-4.119c0,0,1.158,0.344,1.716-0.129
		c0.559-0.472,0.729-1.888-0.086-2.53c-0.814-0.644-1.544-0.945-2.145-0.129c-0.601,0.816-0.172,0.987-0.515,0.987
		c-0.344,0-1.33-0.729-2.017-0.344c-0.687,0.387-1.287,1.288-1.287,1.288s-2.06-1.03-3.304-1.802
		c-1.244-0.773-2.188-1.545-2.316-1.759c0,0,2.316,0.3,4.118-0.386c1.803-0.687,3.261-2.274,3.261-3.604
		c0,0,1.287-1.716,0.558-2.832c0,0,1.759-0.901,1.33-2.017c-0.429-1.115-1.802-2.359-3.303-3.131l0.042-0.815
		C386.28,382.051,390.398,383.338,392.072,382.266L392.072,382.266z M317.696,398.756l-0.319-0.439l-0.28-0.28
		c0.479-0.119,1.479-0.279,1.479-0.279L317.696,398.756L317.696,398.756z M377.455,407.63c-0.724-0.275-1.209,0.013-1.329,0.098
		c-0.01,0.007-0.019,0.016-0.03,0.022c0,0,0.011-0.009,0.03-0.022c0.351-0.256,0.05-0.896,0.05-0.896l0.439-0.2l0.96,0.6
		L377.455,407.63L377.455,407.63z"/>
	<path fill-rule="evenodd" clip-rule="evenodd" d="M221.76,408.925c0,0-0.879,2.011-0.355,3.634
		c0.524,1.622,1.876,2.704,2.028,2.806c0.152,0.101-1.287-0.235-2.23-2.94C220.948,411.696,221.18,409.145,221.76,408.925
		L221.76,408.925z"/>
	<path fill-rule="evenodd" clip-rule="evenodd" d="M222.34,416.665c0,0-1.476-0.084-2.152-1.064s-0.642-1.538-0.642-1.538
		s-0.253,0.287,0.135,0.964c0.388,0.676,0.743,1.233,1.217,1.437C221.371,416.665,222.34,416.783,222.34,416.665L222.34,416.665z"/>
	<path fill-rule="evenodd" clip-rule="evenodd" d="M249.594,416.311c0,0-3.498,2.789-5.864,1.893c0,0-0.102,0.439,0.862,0.474
		C245.555,418.71,247.921,418.17,249.594,416.311L249.594,416.311z"/>
	<path fill-rule="evenodd" clip-rule="evenodd" d="M254.665,413.86c0,0-0.929-0.71-1.335-1.268s-0.22-0.896-0.439-0.794
		S253.228,413.557,254.665,413.86L254.665,413.86z"/>
	<path fill-rule="evenodd" clip-rule="evenodd" d="M256.271,413.945c0,0-1.487-1.741-1.454-3.16c0.034-1.42,0.879-2.332,1.166-2.468
		c0.288-0.135-0.034-0.625-0.659,0.067C254.698,409.078,253.431,411.546,256.271,413.945L256.271,413.945z"/>
	<path fill-rule="evenodd" clip-rule="evenodd" d="M311.433,413.186c0,0-0.828,1.014-2.924,0.979
		c-2.096-0.033-1.74-0.405-1.689-0.49C306.87,413.591,308.61,414.537,311.433,413.186L311.433,413.186z"/>
	<path fill-rule="evenodd" clip-rule="evenodd" d="M309.996,412.425c0,0,1.978-1.251,2.366-2.569s0.051-1.571,0.034-1.774
		c-0.018-0.203,0.202-0.389,0.338,0.084C312.869,408.639,313.681,410.785,309.996,412.425L309.996,412.425z"/>
	<path fill-rule="evenodd" clip-rule="evenodd" d="M341.971,406.138c0,0-0.845,1.876-0.085,3.144
		c0.762,1.268,2.604,0.727,2.772,0.744c0.169,0.017,0.101,0.152-0.457,0.253c-0.558,0.102-2.011,0.102-2.603-0.896
		C341.008,408.386,341.48,406.408,341.971,406.138L341.971,406.138z"/>
	<path fill-rule="evenodd" clip-rule="evenodd" d="M343.56,411.377c0,0-1.014,0.338-1.353,0.017
		c-0.338-0.321-0.591-0.777-0.676-0.659C341.447,410.854,342.005,412.374,343.56,411.377L343.56,411.377z"/>
	<path fill-rule="evenodd" clip-rule="evenodd" d="M358.87,412.628c0,0,1.2-1.74,0.998-2.822c-0.203-1.081-0.913-1.504-0.862-1.656
		s1.285,0.22,1.099,1.825C359.919,411.58,359.057,412.527,358.87,412.628L358.87,412.628z"/>
	<path fill-rule="evenodd" clip-rule="evenodd" d="M361.372,410.904c0,0,0.017,0.997-0.761,1.622
		c-0.777,0.626-1.268,1.082-1.268,1.082S361.979,412.341,361.372,410.904L361.372,410.904z"/>
	<path fill-rule="evenodd" clip-rule="evenodd" fill="#00A1E4" d="M262.619,404.102c0,0-0.399,1.511-0.085,2.109
		c0,0-1.254-0.199-1.141-1.169C261.507,404.073,262.391,404.073,262.619,404.102L262.619,404.102z"/>
	<path fill-rule="evenodd" clip-rule="evenodd" fill="#ED1847" d="M266.639,409.205c0,0-0.827-0.542-1.112-0.428
		c0,0-0.114,0.37-0.428,0.428c-0.313,0.057-1.825,0.541-2.423,0.398s-0.028-0.342-0.028-0.342s-0.513-0.684-1.54-0.513
		s-3.336,1.197-3.165,2.851c0.171,1.653,0.998,3.678,3.335,4.847s5.816,1.938,6.899-0.285c0,0-2.48-1.653-3.136-3.336
		c0,0-1.14,0.343-1.226-0.285c-0.085-0.627,0.343-0.37,0.599-0.313c0.256,0.058,0.542-0.057,0.542-0.057s-0.285-0.77,0.029-1.312
		C265.299,410.316,265.641,409.689,266.639,409.205L266.639,409.205z"/>
	<path fill-rule="evenodd" clip-rule="evenodd" fill="#ED1847" d="M268.833,409.348c0,0-2.024-0.2-2.737,0.599
		c-0.712,0.798-1.425,1.995,0.229,4.02c1.653,2.024,5.673,3.308,7.441,3.25s4.391-1.026,4.248-3.222s-3.45-3.192-4.077-3.278
		c0,0-2.053,1.254-2.623,1.197c-0.57-0.058-0.827-0.285-0.314-0.428s3.079-1.141,3.592-2.651s-0.428-2.167-1.369-2.595
		c-0.94-0.428-2.508-0.798-3.193-0.77c-0.684,0.028-0.257-0.398,0.229-0.37c0.484,0.028,0.513,0.113,0.513,0.113
		s-0.171-0.427,0.086-0.427c0.256,0,0.313,0.484,0.313,0.484s1.368,0.257,1.967,0.57c0,0,1.881-1.996-0.171-4.306
		c0,0-4.02-0.741-9.779,1.91c0,0-1.026,2.794,0.741,3.792s1.254,0.94,3.963,1.083c2.708,0.144,2.994,0.57,2.965,0.799
		c-0.029,0.229-0.313,0.484-0.428,0.399c-0.114-0.086-0.513-0.457-0.513-0.457s-0.428,0.399-0.77,0.885
		c-0.342,0.484-0.513,0.484-0.627,0.313c-0.114-0.171-0.314-0.286-0.171-0.399C268.492,409.746,268.833,409.348,268.833,409.348
		L268.833,409.348z"/>
	<path fill-rule="evenodd" clip-rule="evenodd" fill="#ED1847" d="M260.908,390.075c0,0,0.884-2.167,2.538-3.792
		c0,0-0.143-1.768,1.055-1.568c0,0,0.827-0.912,1.768-0.2c0,0,0.77-0.143,1.254-0.028c0,0,0.485-1.283,1.967-0.171
		c0,0,0.313-0.313,0.77,0.741l0.285,0.143c0,0,0.399-0.028,0.827,0.257c0.427,0.285,0.399,0.598-0.114,0.484l0.143,0.228
		c0,0,1.112-0.399,1.91,0.2c0,0,0.741-0.913,0.285-1.426c-0.456-0.513-2.195-1.312-6.101-1.425c-3.906-0.114-5.16,0.143-5.16,0.143
		l-0.028-0.371c0,0,3.25-0.798,7.355,0.085c0,0-0.285-0.599-0.399-1.112c0,0-1.026,0.028-1.996,0.114
		c-0.969,0.085-2.223-0.2-2.423-0.884c-0.2-0.684,0.884-0.541,1.169-0.085s0.342,0.484,1.055,0.484s5.73-0.029,6.899-1.026
		s1.141-1.911-0.2-2.937c-1.34-1.026-6.386-3.592-12.231,0.627c-5.844,4.219-6.329,9.836-4.618,12.145
		C256.917,390.702,258.143,389.533,260.908,390.075L260.908,390.075z"/>
	<path fill-rule="evenodd" clip-rule="evenodd" fill="#00A1E4" d="M260.68,390.502c0,0-0.741-0.342-1.682-0.257
		s-3.165,1.026-1.967,2.765C257.031,393.011,257.43,391.215,260.68,390.502L260.68,390.502z"/>
	<path fill-rule="evenodd" clip-rule="evenodd" fill="#FFFFFF" d="M262.647,387.965c0,0,1.739,0.143,2.338,2.395
		c0,0-1.197,0.484-1.055,1.71c0.143,1.226,1.654,1.853,2.48,2.024c0,0-2.651-1.369-1.881-2.624c0.77-1.254,2.737-1.71,4.96-0.398
		l0.884-0.029c0,0-0.085,0.285,0.028,0.313c0.114,0.029,2.082-0.114,3.051-0.656c0.969-0.542,1.283-1.311,1.283-1.311
		s1.397,0.313,1.083,1.482c-0.313,1.169-2.338,2.879-2.338,2.879s1.967-0.941,2.594-2.138c0,0,0.855,0.57-2.252,2.794
		c0,0,0.542,0,1.197-0.57c0,0,0.399,0.143-0.028,0.627c-0.428,0.485-2.366,1.511-3.849,1.597c-1.483,0.085,0-0.057,0-0.057
		s0.199,0.313,1.454,0c0,0,0.342,0.485-1.938,0.257c0,0,0,0.313,1.198,0.313c0,0-0.143,0.6-1.768,0.115c0,0-0.313,0.256-0.741,0.342
		c0,0-0.028-0.484-0.257-0.457c-0.228,0.029-0.342,0.2-0.969,0.656c-0.627,0.456-1.254,0.655-1.254,0.655s0.712-0.77,0.741-0.969
		c0.028-0.2-0.114-0.343-0.285-0.171c-0.171,0.171-1.597,1.168-2.823,0.883c0,0,1.083-0.285,1.397-0.57c0,0-4.618,1.198-4.533,0.485
		c0,0,0.855,0,1.369-0.456c0,0-3.563,0.655-3.45-0.827c0,0,1.54,0.798,3.022,0.656c0,0-3.193-0.599-3.906-1.768
		c-0.713-1.168-1.671-2.239,0.998-3.877c1.255-0.77,3.279-0.371,3.279-0.371l0.114-0.228c0,0-0.97-0.171-1.141-0.143
		c0,0-0.342-0.2-0.256-0.2S261.649,389.105,262.647,387.965L262.647,387.965z"/>
	<path fill-rule="evenodd" clip-rule="evenodd" d="M265.954,394.493c0,0-1.168-0.228-1.511-0.998c0,0-0.228,0.399-0.057,0.542
		C264.558,394.18,265.327,394.579,265.954,394.493L265.954,394.493z"/>
	<path fill-rule="evenodd" clip-rule="evenodd" d="M273.025,393.438c0,0,0.684-0.741,0.912-1.055s0.228-0.656,0.428-0.57
		S274.222,392.612,273.025,393.438L273.025,393.438z"/>
	<path fill-rule="evenodd" clip-rule="evenodd" d="M267.636,393.81c0,0-0.941-0.086-1.397-0.599s-0.228-0.712-0.484-0.656
		c-0.257,0.058-0.229,0.627,0.199,0.855S267.009,393.952,267.636,393.81L267.636,393.81z"/>
	<path fill-rule="evenodd" clip-rule="evenodd" d="M268.264,391.728c0,0,0.542,0.684,2.167,0.627
		c1.625-0.057,1.853-0.485,2.109-0.627s0.428-0.285,0.542-0.143c0.114,0.143-0.057,0.457-0.399,0.371c0,0-0.713,0.456-1.454,0.542
		c0,0-0.371,0.998-0.884,1.368c-0.513,0.371-1.596,0.513-1.653-0.057c-0.057-0.57,0.456-1.312,0.456-1.312s-0.969-0.485-1.112-0.599
		c0,0-0.399,0.114-0.485,0.143c-0.085,0.028-0.057-0.399,0.428-0.485c0.485-0.086,0.741-0.114,0.77,0.028
		C268.777,391.728,268.663,391.643,268.264,391.728L268.264,391.728z"/>
	<path fill-rule="evenodd" clip-rule="evenodd" fill="#ED1847" d="M269.119,393.04c0,0-0.342,0.855-0.028,0.941
		c0.313,0.085,0.998-0.2,0.998-0.2S269.946,393.011,269.119,393.04L269.119,393.04z"/>
	<path fill-rule="evenodd" clip-rule="evenodd" fill="#00A1E4" d="M254.151,397.088c0,0-0.342-0.884-0.656-0.941
		c-0.313-0.057-0.542,0-0.627-0.2c-0.085-0.199-0.114-0.484-0.028-0.883c0.085-0.399,0.086-0.798-0.313-0.884
		c-0.399-0.085-1.597-0.057-1.796,0.485c-0.2,0.542,0.085,0.969,0.199,1.112c0,0,2.423,0.371,2.908,1.197L254.151,397.088
		L254.151,397.088z"/>
	<path fill-rule="evenodd" clip-rule="evenodd" fill="#00A1E4" d="M248.021,398.97c0,0-0.94,0.114-0.713,2.736
		c0,0-1.312,0.199-1.368-0.884C245.883,399.739,247.081,397.857,248.021,398.97L248.021,398.97z"/>
	<path fill-rule="evenodd" clip-rule="evenodd" fill="#00A1E4" d="M249.418,399.369c0,0-1.34,1.311,0.542,3.164
		c0,0-1.369,0.399-1.967-0.456S247.138,398.456,249.418,399.369L249.418,399.369z"/>
	<path fill-rule="evenodd" clip-rule="evenodd" fill="#00A1E4" d="M252.099,400.31c0,0,0.798,0.713,1.112,0.969
		c0,0-0.77,1.141-1.682,1.169s-1.996-0.713-2.024-1.796c-0.028-1.083,0.941-2.594,1.882-2.138s0.713,0.998,0.513,1.282
		c-0.2,0.285-0.57,1.083-0.285,1.197S252.07,400.452,252.099,400.31L252.099,400.31z"/>
	<path fill-rule="evenodd" clip-rule="evenodd" fill="#00A1E4" d="M272.883,401.25c0,0-1.511-1.682-2.452-2.479
		c-0.941-0.799-1.226-0.913-0.884-1.056s1.254,0.799,1.625,1.197c0.371,0.399,1.54,1.568,1.54,1.568s3.075,0.285,4.216,0.57
		c0.019,0.005,0.003,0,0.003,0s0.599-1.796,2.338-2.965c0,0-1.197-0.343-2.937-0.514c-1.739-0.171-4.59-0.541-4.59-0.541
		s-0.855,0.285-1.597-0.058c0,0-0.827,0.484-1.254,0.456c0,0-0.171-0.199-0.028-0.285s0.085-0.257,0.085-0.257
		s-0.485,0.485-0.912,0.741c-0.428,0.257-1.369,0.628-1.454,0.485c-0.086-0.143,0.313-0.656,0.313-0.656s-2.11,0.97-2.88,0.313
		c0,0-3.136,0.771-3.364-0.228c0,0-1.169,0.171-1.682-0.485c0,0-1.112,0.086-2.224,0.257s-1.653,0.371-1.938,0.285
		c0,0,2.223,1.227,0.599,2.395l-0.029,0.514c0,0,2.195-0.342,4.448-0.285c2.252,0.058,3.934,0,4.219,0.114s0.342,0.37,0.114,0.484
		s-0.428,0.058-0.428,0.058s-0.171,1.567-0.371,2.167C263.36,403.047,268.207,400.509,272.883,401.25L272.883,401.25z"/>
	<path fill-rule="evenodd" clip-rule="evenodd" fill="#00A1E4" d="M281.321,397.173c0,0-0.969,0.313-1.283,0.456
		c0,0-0.2-1.055,0.627-1.596c0.827-0.542,1.996-0.855,2.68-0.599c0.684,0.256,1.34,2.395-0.114,2.737s-1.369-1.141-1.112-1.853
		c0,0-0.2-0.029-0.371,0.142s-0.114,0.371-0.114,0.371s-0.513,0.057-0.57-0.2C281.064,396.631,280.894,396.945,281.321,397.173
		L281.321,397.173z"/>
	<path fill-rule="evenodd" clip-rule="evenodd" fill="#00A1E4" d="M281.687,404.208c0,0,0.074,0.296,0.018,0.37
		c0,0,1.278-0.093,1.556-0.611s0.167-1.629-0.574-1.944c-0.741-0.314-1.822-0.166-1.852,0.76c-0.019,0.574,0.5,0.722,0.852,0.87
		c0.352,0.148,0.518,0.352,0.444,0.426C282.057,404.152,281.687,404.208,281.687,404.208L281.687,404.208z"/>
	<path fill-rule="evenodd" clip-rule="evenodd" fill="#00A1E4" d="M262.844,387.606c0,0,1.904,0.563,2.526,2.643
		c0,0,2.274-0.972,4.256,0.797c0,0,0.699,0.097,0.758,0.078c0.058-0.02,0.097-0.136,0.039-0.175
		c-0.058-0.039-0.175-0.175,0.117-0.175c0.291,0,2.604,0.078,3.284-0.836c0.68-0.913,0.777-1.943,0.078-2.545
		c-0.7-0.603-2.06-1.205-2.682-0.642c-0.622,0.563-0.972,1.69-1.283,2.235c-0.311,0.544-0.525,0.777-0.661,0.642
		c-0.136-0.136,0.02-0.447,0.136-0.505c0.117-0.058,0-0.214,0-0.214s-0.214,0-0.291-0.136c0,0-0.059,0.544-0.564,0.758
		c-0.505,0.214-1.555,0.272-2.137-0.447c-0.583-0.719-1.583-1.963-0.408-2.935c0.563-0.466,1.554-0.194,2.021,0.331
		c0,0-0.039-0.622,0.738-0.777c0.778-0.155,1.438,0.466,1.827,1.321c0,0,0.233-0.641,0.602-0.738l-0.699-1.108l-0.241-0.121
		c0,0,0.144,0.393,0.027,0.432c-0.117,0.039-0.155-0.059-0.292-0.447c-0.136-0.389-0.408-0.467-0.408-0.467s0.175,0.233,0,0.233
		c-0.175,0-0.777-0.816-1.224-0.661c-0.447,0.155-0.642,0.661-0.797,0.68c-0.156,0.019-0.214-0.039-0.117-0.175
		c0,0-0.681-0.058-1.069,0.02c0,0,0.175,0.33-0.078,0.35c-0.252,0.02-0.622-0.486-1.069-0.331c-0.447,0.155-0.738,0.583-0.758,1.127
		c-0.02,0.544,0.078,0.563-0.039,0.641c-0.116,0.078-0.428-0.7-0.039-1.418c0,0-0.35-0.272-0.467,0.563
		c-0.116,0.835-0.077,1.107,0.136,1.69c0,0-0.389-0.214-0.486-0.641C263.582,386.654,263.077,387.16,262.844,387.606
		L262.844,387.606z"/>
	<path fill-rule="evenodd" clip-rule="evenodd" fill="#FFFFFF" d="M268.926,387.957c0,0,0.331-0.816,1.011,0.175
		c0,0,0.427-0.428,0.505-0.855c0,0-0.525-1.497-1.438-1.438c-0.913,0.059-0.797,0.739-0.797,0.875
		C268.207,386.849,268.615,387.529,268.926,387.957L268.926,387.957z"/>
	<path fill-rule="evenodd" clip-rule="evenodd" fill="#FFFFFF" d="M267.411,389.472c0,0,0.835,0.214,1.205-0.194
		c0.37-0.408,0.311-0.836,0.175-1.088c-0.136-0.253-0.642-1.302-1.011-1.672c-0.369-0.369-1.244-0.719-1.749-0.194
		c-0.505,0.524-0.486,1.127,0.019,2.021C266.05,388.345,267.546,387.16,267.411,389.472L267.411,389.472z"/>
	<path fill-rule="evenodd" clip-rule="evenodd" fill="#FFFFFF" d="M241.568,386.42c0,0,0.32,0.267,0.427,0.427
		c0,0,0.507-0.213,0.8-0.081c0,0,0.747-1.067,0.534-1.573c-0.214-0.507-1.041-0.987-3.281-1.201
		c-2.24-0.213-6.401,0.641-7.254,0.934c0,0-0.187,0.053-0.213-0.134c-0.027-0.187-0.187-0.24,0.293-0.4
		c0.479-0.16,1.867-0.56,5.494-0.72c0,0-0.213-0.4-0.613-0.694c0,0-1.227,0.24-2.374,0.187c-1.146-0.054-1.333-0.427-1.333-0.427
		s0.267-0.614,0.534-0.614c0.267,0,0.32,0.613,0.667,0.667c0.347,0.054,3.067-0.106,4.961-0.667s3.441-1.333,3.254-2.374
		c-0.187-1.041-1.04-2.268-3.36-2.694c-2.321-0.427-4.268-0.294-6.881,1.093c-2.614,1.387-5.948,4.641-6.481,8.535
		c-0.533,3.894,0.667,6.427,1.574,7.708c0,0-0.693-3.468,3.841-2.907c0,0,0.48-2.801,2.054-4.588c0,0-0.187-1.733,1.92-1.333
		l0.347-0.027c0,0,0.213-0.454,0.56-0.107l0.213-0.027c0,0,1.334-1.76,2.48,0.107c0,0,0.24,0.16,0.747,0.133
		c0.507-0.026,1.36,0.053,1.52,0.267S242.315,386.527,241.568,386.42L241.568,386.42z"/>
	<path fill-rule="evenodd" clip-rule="evenodd" fill="#FFFFFF" d="M238.101,390.821c0,0,0.934,0.187,1.36-0.533
		c0.427-0.72-0.454-1.76-0.8-2s-1.36-1.04-2-0.64c-0.64,0.4-0.907,1.173,0,2.534c0,0,0.134-0.8,0.827-0.587
		C238.181,389.808,238.101,390.821,238.101,390.821L238.101,390.821z"/>
	<path fill-rule="evenodd" clip-rule="evenodd" fill="#FFFFFF" d="M239.514,388.875c0,0,0.4-0.48,1.12,0.24
		c0,0,0.16-0.427,0.24-0.64s0.24-0.427,0.24-0.427s-0.774-1.067-1.547-1.12c-0.774-0.053-1.174,0.4-0.987,1.04
		C238.581,387.967,239.167,388.447,239.514,388.875L239.514,388.875z"/>
	<path fill-rule="evenodd" clip-rule="evenodd" fill="#00A1E4" d="M232.686,391.595c0,0,0.08-2.48,1.52-4.587
		c0,0,0.027,0.693,0.374,1.067c0,0-0.267-1.36,0.133-1.76c0.4-0.4,0.96-0.347,1.2-0.24c0,0,0.267-0.16,0.294-0.267
		c0.026-0.106-0.08-0.239-0.08-0.239s0.773-0.16,1.12-0.161c0,0-0.053,0.374,0.026,0.374c0.08,0,0.054-0.293,0.347-0.534
		c0.294-0.24,0.907-0.187,1.094-0.026c0.187,0.16,0.561,0.72,0.72,0.72c0.16,0,0.267-0.213,0.267-0.213s1.574,0.267,2.107,1.201
		c0,0-0.534,0.4-0.587,0.827c0,0-0.934-0.987-1.494-1.014c-0.56-0.026-1.414,0.027-1.467,0.907c0,0-1.227-0.613-1.734-0.133
		c-0.507,0.48-0.96,0.96-0.187,2.534c0.773,1.574,2.8,1.013,3.067,0.667c0.267-0.347,0.32-0.533,0.32-0.533l0.4,0.053
		c0,0-0.32,0.107-0.16,0.213c0.16,0.106,0.533-0.213,0.693-0.587c0.16-0.373,0.48-1.707,1.014-2.214
		c0.533-0.506,1.547-0.827,2.827,0.027c1.281,0.853,0.32,2.934-0.48,3.36c-0.8,0.427-1.44,0.827-2.907,0.48
		c0,0-0.453,0.32-0.16,0.56c0.293,0.24,2.16,0.054,3.44-0.96c0,0,0.534,1.707-1.547,3.334c-2.08,1.627-4.667,2.854-8.188,2.161
		c0,0,0.293-0.48-0.026-0.694c-0.32-0.213-0.854,0.374-1.227,0.56c-0.373,0.187-1.707,0.24-2.374,0.054
		c-0.667-0.187-2.507-1.041-2.348-2.614c0.16-1.573,1.254-1.947,2.188-1.974c0.933-0.027,1.387,0.027,1.787,0.293
		c0.4,0.267,0.694,0.427,0.854,0.267C233.673,392.342,233.566,391.968,232.686,391.595L232.686,391.595z"/>
	<path fill-rule="evenodd" clip-rule="evenodd" d="M231.646,394.982c-0.155,0.311,0.027,0.934,0.561,0.987s0.773-0.32,0.907-0.106
		s0.026,0.453-0.454,0.373c-0.48-0.08-1.36-0.026-1.333-1.04c0,0-1.6-0.106-0.613-0.827c0,0-0.347-0.213-0.72-0.133
		c-0.374,0.08-0.187,0.347-0.293,0.293c-0.107-0.053-0.24-0.453-0.08-0.453c0.16,0,1.813-0.026,2.934,0.4
		c1.12,0.427,1.253,0.747,0.4,0.347S231.726,394.822,231.646,394.982L231.646,394.982z"/>
	<path fill-rule="evenodd" clip-rule="evenodd" d="M237.034,392.981c0,0,1.573,0.8,3.494,0.293s2.534-1.093,2.828-1.2
		c0.293-0.107,0.213-0.347,0.56-0.24c0.347,0.106-0.24,0.426-0.32,0.4c-0.08-0.027-0.907,0.32-0.987,0.533
		c-0.08,0.213-0.72,1.76-1.92,2.587c-1.2,0.827-1.627,1.199-2.587,0.8c-0.96-0.4,0.213-1.681,0.24-2.427c0,0-1.173-0.32-1.387-0.614
		c0,0-0.187,0.214-0.293,0.347c-0.107,0.133-0.587,0.186-0.427-0.08c0.16-0.267,0.133-0.561,0.586-0.72
		c0.454-0.16,0.427-0.213,0.561-0.107C237.514,392.662,237.113,392.742,237.034,392.981L237.034,392.981z"/>
	<path fill-rule="evenodd" clip-rule="evenodd" fill="#ED1847" d="M238.687,394.662c0,0,1.014-0.32,1.333,0.267
		c0.32,0.586-0.826,1.2-1.573,1.067c0,0-0.507-0.213-0.507-0.427s-0.16-0.507,0.373-0.773c0,0,0.587,0.16,0.801,0.4
		c0,0,0.267,0.16,0.16-0.026C239.167,394.982,238.874,394.662,238.687,394.662L238.687,394.662z"/>
	<path fill-rule="evenodd" clip-rule="evenodd" fill="#00A1E4" d="M226.952,402.477c0,0,0.027-0.427-0.293-0.347
		c-0.32,0.08-0.293,0.32-0.267,0.747c0.027,0.427-0.053,1.333-1.067,2.214c-1.014,0.88-2.4,1.786-3.467,1.974
		c-1.067,0.187-1.654,0.16-1.734-0.747s0.347-1.254,0.693-1.254s2,0.187,2.721-0.399c0,0,0.053-0.027,0.027-0.294
		c-0.027-0.267-0.32-1.493-0.107-2.214c0.213-0.72,0.747-0.854,1.201-0.88c0.453-0.026,0.533-0.24,0.24-0.374
		c-0.293-0.133-1.253-0.159-1.547,0.827c-0.293,0.987-0.187,2.134-0.08,2.854l-0.133,0.053c0,0-0.774-0.587-1.494-1.76
		c-0.72-1.174-0.88-1.921-0.987-1.975c-0.106-0.053-0.267,0.188,0.134,1.041c0.4,0.854,0.586,1.6,2.054,2.721
		c0,0-0.987,0.08-1.334,0.026s-2.133-0.267-1.84,1.867c0,0-1.707,0.054-1.307-1.228c0.4-1.279,2.534-2.693,2.534-2.693l-0.133-0.054
		c0,0-1.547,1.04-2.027,1.707c0,0-1.174-0.399-0.374-1.76c0.8-1.36,1.894-2.054,3.387-2.987c0,0-0.056,0.4,0.267,0.373
		c0.323-0.026,0.323-0.16,0.323-0.399c0-0.24-0.109-0.561-0.323-0.614c-0.213-0.053-0.987-0.507-0.987-1.014s0.431-1.573,1.31-1.813
		c0.877-0.24,1.464,0.08,1.544,0.32s-0.4,1.147-0.347,1.547c0.053,0.399,0.08,0.613,0.48,0.587c0.4-0.026,1.041-0.054,1.387,0.587
		c0.347,0.64,0.56,0.986,0.72,0.88c0.16-0.106,0.213-0.373,0.026-0.56c0,0,2.881-0.747,4.614-1.201
		c1.734-0.453,4.694-1.066,4.694-1.066s2.801,0.187,4.614-0.533c0,0,4.321-0.56,7.948,0.079c0,0,1.947-1.653,5.494,0.268
		c0,0-1.12-0.32-1.28-0.24c-0.16,0.08,4.348,1.414,3.067,2.801c0,0-1.174-1.254-3.254-1.974c0,0-0.24,0.106,0.08,0.213
		c0.32,0.107,2.759,1.268,2.934,2.32c0.026,0.16-0.667,0.934-1.041,0.854c-0.373-0.079-0.934-0.347-1.654-0.96
		c0,0,0.8-0.773-0.106-1.493c-0.907-0.721-2.347-0.294-2.534,0.213c0,0-0.64-0.319-1.334-0.026c0,0-1.333-1.174-2.561,0.88
		c0,0-2.587-0.133-4.401,0.267c0,0-0.986-2.373-1.387-2.427c-0.4-0.054-0.64,0-0.16,0.453c0.48,0.453,2,3.334,1.654,5.788
		c0,0-1.173,1.04-3.761,0.854s-3.974-1.28-4.641-2.561l0.267-0.641l0.986-0.08c0,0,0.054,0.32,0.214,0.32s0.16-0.453,0.16-0.453
		s0.64-0.08,0.747-0.187c0.107-0.107,0.08-0.16-0.133-0.347c0,0-2.32,0.267-3.281,0.56
		C231.139,401.41,227.939,401.996,226.952,402.477L226.952,402.477z"/>
	<path fill-rule="evenodd" clip-rule="evenodd" fill="#00A1E4" d="M231.379,402.699c0,0-1.115-0.363-1.798,0.523
		c-0.683,0.888-0.023,1.229-0.023,1.229S230.06,403.496,231.379,402.699L231.379,402.699z"/>
	<path fill-rule="evenodd" clip-rule="evenodd" fill="#FFFFFF" d="M232.767,402.199c0,0-1.388,0.751-2.139,1.57
		s-1.161,2.07-0.341,2.935c0.819,0.865,1.868,1.404,1.57,2.299c-0.068,0.204-0.614,0.068-0.728-0.433s-0.364-0.592-0.364-0.592
		s-1.684,0.41-2.252,0.318c0,0-0.364-0.591-0.182-0.659s0.591,0.022,0.591,0.022s-0.614-0.888-2.252-0.546
		c-1.638,0.341-2.844,1.319-2.799,3.322c0.046,2.002,2.412,5.574,5.166,6.553c2.753,0.979,4.938,0.022,5.165-1.57
		s-0.66-2.912-1.934-3.708c0,0-2.321,0.182-2.685,0.022s-0.5-0.614-0.205-0.797c0.296-0.182,0.523,0.114,1.866,0.205
		c1.342,0.091,3.368-0.023,3.732-1.023c0.364-1.002,0.364-1.866-0.251-3.072c0,0,0.114-0.205,0.478,0.409
		c0,0,0.318-0.273,0.341-0.137s-0.205,0.318-0.205,0.318s0.273,0.615,0.409,0.934c0,0,4.938,0.364,5.78-4.506
		C241.527,404.064,236.34,406.75,232.767,402.199L232.767,402.199z"/>
	<path fill-rule="evenodd" clip-rule="evenodd" fill="#FFFFFF" d="M241.504,406.363c0,0,1.729,0.068,1.729,1.479
		c0,0-0.455,0.91-0.865,1.252c-0.41,0.341-1.274,1.023-1.251,1.229l0.341-0.022c0,0,0.296-0.273,0.455-0.183
		c0,0,0.433-0.363,0.774-0.91c0.341-0.546,2.047-2.799,3.163-3.14c1.115-0.342,3.368-0.296,4.301,1.593
		c0.933,1.889,0.113,4.642-1.092,5.87c-1.207,1.229-3.778,3.345-6.098,3.481c-2.321,0.137-3.687-0.522-4.051-1.229
		c-0.364-0.705,0-1.388,0-1.388s-0.409,0.272-0.364,0.751c0,0-0.796-1.548,0.182-2.867s1.638-1.615,1.729-1.639
		c0.091-0.022,0.045-0.159-0.182-0.137c-0.228,0.023-0.5,0.16-0.5,0.16s-0.045-0.388,0.022-0.888
		c0.068-0.501,0.091-1.115-0.091-1.138s-0.41,0.341-0.524,0.341c-0.113,0-0.25-0.228-0.25-0.228S241.163,407.068,241.504,406.363
		L241.504,406.363z"/>
	<path fill-rule="evenodd" clip-rule="evenodd" d="M243.097,413.53c0,0,0.819,0.569,1.047,0.797s0.546,0.546,0.569,0.683
		c0,0,0.182-0.091,0.091-0.296C244.713,414.509,243.552,413.121,243.097,413.53L243.097,413.53z"/>
	<path fill-rule="evenodd" clip-rule="evenodd" d="M242.073,412.962c0,0,1.138-0.114,1.957,0.568c0.819,0.684,1.001,0.91,1.138,0.91
		s0.364-0.091,0.364-0.227c0-0.137-0.456-0.547-1.32-0.956C243.348,412.848,242.21,412.598,242.073,412.962L242.073,412.962z"/>
	<path fill-rule="evenodd" clip-rule="evenodd" d="M249.787,409.025c0,0-0.637-0.819-1.593-1.023
		c-0.956-0.205-2.208-0.319-3.026,0.295c-0.819,0.614-2.867,2.89-3.345,3.095c0,0-0.022-0.068,0.456-0.523
		c0.478-0.455,2.457-2.821,3.845-3.117S249.719,408.07,249.787,409.025L249.787,409.025z"/>
	<path fill-rule="evenodd" clip-rule="evenodd" d="M241.573,411.574c0,0-1.161,0.387-1.297,0.522l0.182,0.16
		c0,0-1.115,0.546-0.682,0.751c0,0-0.638,0.5-0.546,0.614c0.091,0.113,0.137-0.114,0.956-0.638c0,0-1.047,0.046,0.614-0.751
		l0.228-0.068c0,0-0.637-0.113,0.295-0.387L241.573,411.574L241.573,411.574z"/>
	<path fill-rule="evenodd" clip-rule="evenodd" fill="#00A1E4" d="M281.463,397.439c0,0-1.794,0.618-2.559,1.354
		c-0.765,0.734-2.177,2.676-1.03,3.44c0,0,0.236-1.176,0.941-1.971c0,0,0-0.234-0.118-0.499c0,0,0.324,0,0.382,0.088
		s0.294-0.471,0.441-0.383c0.147,0.089-0.794,1.089-1.059,2.177c-0.265,1.088-0.47,2.118,0.441,2.265c0,0,0-1.235,0.617-2.117
		c0.618-0.883,0.971-1.53,1.147-1.471c0.177,0.059-0.882,1.412-1.147,2.059c-0.265,0.646-0.353,2.146,0.706,2.235
		c1.059,0.088,1.088-0.206,1.176-0.412c0.088-0.206-0.5-0.588-0.5-0.588s-0.823-0.147-0.618-0.912
		c0.206-0.765,0.941-1.529,1.912-1.147c0,0,0.471-0.734,1.353-0.794c0,0,0.588-2.323,3.206-0.676c0,0,0.235-0.559-0.5-1
		c-0.735-0.441-0.647-0.618-0.5-0.647c0.147-0.029,0.294,0.177,0.294,0.177s0.324-0.441,0.971-0.706s1.117-0.47,1.382-0.676
		c0,0-0.294,0.029-0.235-0.147c0.059-0.177,0.206-0.206,1.471,0.059s2.117,0.706,2.117,0.706s1.03-1.588,1.412-1.647
		c0.382-0.059,0.588,0.147,0.588,0.147s-2.647,2.559-3.118,4.588c0,0,0.561,2.181,4.206,2.294c1.883,0.059,3.588-0.823,5.088-2.176
		c0,0-0.529-1.354-0.382-2.118c0,0-0.382,0.089-0.412,0.354c0,0-0.559-0.089-0.5-0.295c0.059-0.205,0.53-0.528,1.383-0.97
		c0.853-0.441,3.088-1.5,3.47-1.559c0.382-0.059,1.029-0.118,2.559-0.059c1.529,0.059,2.059,0.441,2.059,0.441
		s-0.029,0.383-0.265,0.412s-0.824-0.206-0.824-0.206s-0.794,0.411-0.617,0.971c0.176,0.559,0.735,0.823,0.882,0.853
		c0.147,0.029,0.235,0.324,0.118,0.559c-0.118,0.235-0.559,0.706-0.323,1c0.235,0.295,0.529,0.383,0.734,0.235
		c0,0-0.088-0.471,0.03-0.941c0.117-0.47,0.176-0.617,0.176-0.794c0-0.176-0.059-0.382-0.059-0.382s0.5,0,0.941,0
		c0.44,0,0.235-0.147,0.5,0.206c0.265,0.353,0.735,1.206,1.794,1.735c0,0-0.294,0.735-0.118,1.264
		c0.177,0.53,0.324,0.795,0.971,0.647c0.647-0.146,0.941-0.617,0.824-1c-0.118-0.382-0.56-1.735-0.618-2.294
		s0.118-0.735,0.118-0.735s0.205,0.089,0.117,0.5c0,0,0.294-0.146,0.323-0.382s0.029-0.56,0.177-0.56
		c0.146,0,0.088,0.677-0.089,0.941c-0.176,0.265-0.234,0.265-0.205,0.588c0.029,0.324,0.323,1.089,0.44,1.383
		c0,0,0.706-0.206,0.735-0.971c0.03-0.765-0.235-1.911-0.411-2.265c-0.177-0.353-0.088-0.529,0-0.588
		c0.088-0.06,0.323,0.559,0.5,0.941c0.176,0.382,0.294,0.911,0.294,0.911s0.883-0.382,0.411-1.912
		c-0.47-1.529-1.588-2.646-2.411-2.823c-0.823-0.177-1.677,0.235-1.677,0.235s-2.529-2.382-7.117-1.353c0,0-1.794,2.029-5.676,2.471
		c0,0-1.029,0.5-1.265,0.529s-0.53-0.441-0.53-0.441l-0.588,0.03c0,0-0.794,0.382-1.765,0.294s-2.294-0.618-3.059-1.235
		c0,0-2.676-0.765-3.294-0.735c-0.617,0.03-2.234,0.735-3.029,2.059c0,0,0.529,1.412-0.265,2.059
		C283.199,398.704,282.051,399.058,281.463,397.439L281.463,397.439z"/>
	<path fill-rule="evenodd" clip-rule="evenodd" fill="#00A1E4" d="M282.728,401.646c0,0,0.971,0.235,1.088,2.029
		c0,0,2.206,0.265,1.617-1.471C284.846,400.469,282.61,401.439,282.728,401.646L282.728,401.646z"/>
	<path fill-rule="evenodd" clip-rule="evenodd" fill="#00A1E4" d="M284.052,400.793c-0.006,0.088,1.323,0.029,1.941,1.617
		c0,0,1.559-0.735,0.559-1.823S284.11,399.852,284.052,400.793L284.052,400.793z"/>
	<path fill-rule="evenodd" clip-rule="evenodd" fill="#00A1E4" d="M293.315,393.822c-0.42-0.221-1.205-0.735-0.764-1.059
		c0.441-0.324,0.735-0.382,1.147-0.029c0.412,0.353,1.059,1.118,0.646,1.235C293.934,394.087,293.875,394.116,293.315,393.822
		L293.315,393.822z"/>
	<path fill-rule="evenodd" clip-rule="evenodd" fill="#00A1E4" d="M291.434,389.558c-0.433,0.289-0.324,0.824-0.03,1.147
		c0.294,0.323,1.353,0.882,2.206,1.588s1.5,1.5,1.029,1.971c-0.471,0.47-2.5-0.5-2.882-1.059c0,0-0.882,0.059-0.882,0.618
		c0,0.559,0.764,1.324,1.97,1.588c1.206,0.265,3.206,0.089,3.47-1.235c0.265-1.323-0.853-2.706-2.294-3.765
		C292.581,389.352,291.963,389.205,291.434,389.558L291.434,389.558z"/>
	<path fill-rule="evenodd" clip-rule="evenodd" fill="#00A1E4" d="M291.581,391.352c-0.353-0.088-1-0.646-0.765-1.264
		c0.52-1.365,1.529-1.059,1.529-1.059c0.588-1.146,0.147-2.765,0.147-2.765c-0.147,0.059-0.471,0.059-0.559-0.176
		c-0.088-0.235,0.382-0.529,0.5-1.059c0.118-0.529-0.53-0.823-1.147-0.735c-0.617,0.088-0.794,0.559-0.794,0.559
		s0.588,0.147,0.5,0.294c-0.088,0.147-0.441,0.059-1.059,0.265c-0.618,0.206-1.206,0.706-1.206,0.706
		c0.03,0.353,0.882,0.677,1.118,0.588s0.706-0.059,0.353,0.118c-0.353,0.176-0.824,0.118-1.382,0s-0.618-0.559-0.618-0.559
		c-0.353,0.235-0.529,0.177-0.647-0.647s-0.706-1.441-1.294-1.412c-0.588,0.029-2.294,0.735-2.412,2.382
		c-0.117,1.647,1.824,2.147,1.824,2.147c0.147-0.441,0.412-0.765,0.765-1.265c0.353-0.5,1.088-0.353,0.588-0.029
		c-0.5,0.323-0.882,1.059-1.088,1.706c-0.112,0.353-0.048,0.941,0.193,1.589c0.244,0.187,0.481,0.282,0.718,0.264
		c0.382-0.029,0.882-0.177,1.118-0.441c0,0-0.441-0.235-0.47-0.412c-0.03-0.176,0.412-0.294,0.97,0.059
		c0.559,0.353,0.088,0.853,0,0.794c-0.088-0.059-0.176-0.294-0.294-0.353c0,0-0.743,0.793-1.828,0.582
		c0.194,0.391,0.45,0.787,0.769,1.154c1,1.147,3.206,1.706,3.206,1.706c0.118-1.529,1.588-1.265,1.588-1.265
		c-0.029-0.618,0.912-0.647,0.912-0.647C292.492,391.94,291.934,391.44,291.581,391.352L291.581,391.352z"/>
	<path fill-rule="evenodd" clip-rule="evenodd" fill="#FFFFFF" d="M296.404,395.087c0,0,0.765-0.912,0.47-1.794
		c-0.294-0.882-1.206-2.059-2.44-3c-1.235-0.941-1.677-1.147-1.677-1.147s0.559-1.559-0.088-3.029c0,0,0.412-1.265,0-1.676
		c-0.412-0.412-0.941-0.324-1.382-0.265c0,0-0.412-0.118-0.235-0.647c0.176-0.53,1.47-1.47,3.265-1c0,0-0.236,0.294-0.147,0.412
		s0.324,0,0.794-0.441c0.471-0.441,1.441-1.412,1.441-1.706s-0.147-0.5-0.559-0.441c-0.412,0.059-0.265,0.353-0.324,0.529
		c-0.059,0.177-0.118,0.382-0.118,0.382s-2.265-0.53-3.176-1.059c-0.912-0.53-2.294-1.677-1.147-3.03
		c1.147-1.353,2.736-1.823,5.441-1.529c2.706,0.294,4.882,1.382,6.529,3.794c1.647,2.412,3.147,6,2.029,9.47
		C303.962,392.381,301.639,394.94,296.404,395.087L296.404,395.087z"/>
	<path fill-rule="evenodd" clip-rule="evenodd" d="M294.434,383.735c0,0,1.029,1.706,1.47,1.765c0.441,0.059,0.206-0.177,0-0.354
		C295.698,384.97,294.58,384.058,294.434,383.735L294.434,383.735z"/>
	<path fill-rule="evenodd" clip-rule="evenodd" d="M294.345,383.176c0,0,0.5,0.617,1.294,0.823c0.794,0.207,0.559,0.324,1.029,0.265
		s0.294,0.382-0.029,0.412C296.315,384.705,294.551,383.882,294.345,383.176L294.345,383.176z"/>
	<path fill-rule="evenodd" clip-rule="evenodd" fill="#FFFFFF" d="M300.168,401.322c0,0,0.971,0.705,1.088,1.94
		s-0.353,2-0.441,2.441c-0.088,0.441-0.147,1.588,0.118,2c0.264,0.411,0.382,0.411,0.5,0.294c0.118-0.118-0.206-0.588-0.294-1.117
		c-0.088-0.53-0.235-0.971,0.147-1.383c0.382-0.411,0.853-0.882,0.765-1.177l-0.588,0.5c0,0,0.382-1.146-0.029-2.294
		c0,0,0.823-0.999,2.293-0.853c1.471,0.147,2.883,0.853,4.5,2.735c1.617,1.882,1.912,5.059,0.588,6.059
		c-1.323,1-2.646,1.294-3.911,0.853s-1.765-0.794-2.235-1.676c0,0,1.088-1.706,1.294-2.589c0.206-0.882,0.147-1.265-0.177-1.206
		c-0.323,0.06-0.323,0.647-0.618,1.5c-0.294,0.854-1.029,2.824-2.47,3.118c-1.441,0.294-3-0.383-3.529-2.059
		c-0.529-1.677-0.176-1.529-0.353-1.618c-0.176-0.088-0.471-0.206-0.353,0.529c0,0-1.647,0.824-3.882-0.44
		c-2.235-1.265-3-3.323-2.265-5.324c0,0,1.088,1.529,2.912,1.971S297.315,403.646,300.168,401.322L300.168,401.322z"/>
	<path fill-rule="evenodd" clip-rule="evenodd" fill="#FFFFFF" d="M290.316,406.469c0,0-0.059,1.294,0.412,2.323
		s0.765,1.559,1.441,2.147c0.676,0.588,0.588,0.705,0.588,0.705s-0.5,0.206-0.735,0.03c-0.235-0.177-0.97-1.06-1.235-1.618
		c0,0-0.618,0.441-0.706,2.794c-0.088,2.353,2.059,5.471,3.765,5.588c1.706,0.118,3.719-0.272,4.676-2.059
		c0.441-0.823,0.206-2.146-0.353-2.706c-0.559-0.559-0.882-1.411-1.147-2.029c-0.265-0.617-0.529-1.734-1.176-2.323
		c-0.647-0.588-1.206-0.559-1.206-0.559s-0.029,0.471,0.353,0.735s0.441,0.382,0.5,0.588l-0.382,0.354c0,0-0.441,0.088-0.882-1.677
		c0,0-2.206-0.353-3.029-1.147c0,0-0.029-0.265,0.353,0.03c0.382,0.294,1.412,0.734,2.294,0.794
		C293.845,408.439,291.757,407.646,290.316,406.469L290.316,406.469z"/>
	<path fill-rule="evenodd" clip-rule="evenodd" fill="#00A1E4" d="M309.252,399.26c0,0,0.208,0.391,0.546,0.651
		c0,0-0.911,0.833-0.755,1.589C309.043,401.5,307.897,401.161,309.252,399.26L309.252,399.26z"/>
	<path fill-rule="evenodd" clip-rule="evenodd" fill="#00A1E4" d="M309.043,399.052c0,0-0.833,0.938-0.729,1.563l-0.183-0.104
		c0,0-0.104-0.65,0-0.859c0.104-0.208,0.313-0.729,0.313-0.729l0.442-0.104L309.043,399.052L309.043,399.052z"/>
	<path fill-rule="evenodd" clip-rule="evenodd" fill="#00A1E4" d="M310.059,400.146c0,0,0.234,0.286,0.6,0.442
		c0,0-0.053,1.172,0.025,1.511c0,0-1.067,0.339-1.146-0.286C309.46,401.187,309.616,400.64,310.059,400.146L310.059,400.146z"/>
	<path fill-rule="evenodd" clip-rule="evenodd" fill="#00A1E4" d="M314.33,399.547c0,0,0.13,0.599-0.573,1.849
		c0,0,1.12,0.313,1.38-0.104c0.261-0.416-0.416-1.067-0.234-1.406c0.183-0.338,0.964-0.808,1.094-1.119
		c0.131-0.313,0.131-0.469-0.026-0.964c-0.155-0.495,0.026-0.417,0.026-0.417l0.209-0.156l0.416,0.261c0,0,2.761-0.781,4.35-0.573
		c0,0,0.234,0.495-0.365,0.443c-0.599-0.053-1.016-0.079-1.016-0.079l-0.234,0.287c0,0,0.417,0.573,1.12,0.625
		s1.458-0.417,1.797-1.198c0.339-0.781,0.391-1.719-0.078-2.526c0,0-1.067,0.599-2.188,0.651s-1.901-0.156-2.709-0.469
		c0,0-1.328,0.234-3.072,0.677C314.226,395.328,316.387,398.244,314.33,399.547L314.33,399.547z"/>
	<path fill-rule="evenodd" clip-rule="evenodd" fill="#00A1E4" d="M319.929,408.765l0.469-0.729c0,0-0.078-0.6-0.521-0.859
		c0,0-1.119,0.495-1.719,0.26c0,0,0.183-0.208,0-0.391c-0.182-0.182-0.859-0.416-1.458,0.131s-0.912,1.614,0.183,2.761
		C316.882,409.938,318.262,408.479,319.929,408.765L319.929,408.765z"/>
	<path fill-rule="evenodd" clip-rule="evenodd" fill="#00A1E4" d="M323.548,394.338c0,0,0.234,0.365,0.443,0.99
		c0.208,0.625,0.755,1.329,1.38,1.042c0.625-0.286,1.016-1.198,0.521-1.641c0,0-0.13,0.495-0.573,0.625l-0.182-0.338
		c0,0,0.182-0.313,0.104-0.313C325.163,394.703,324.173,394.521,323.548,394.338L323.548,394.338z"/>
	<path fill-rule="evenodd" clip-rule="evenodd" fill="#00A1E4" d="M326.543,394.859c0,0,2.552,0.547,7.63,3.829
		c0,0,0.911-0.183,2.266,0.911s1.303,2.447,1.172,2.838c0,0-0.781-1.64-1.25-1.614c0,0-0.078,0.156,0.183,0.391
		c0.26,0.234,1.797,2.448,0.208,2.969c0,0-0.938-1.979-1.458-2.317c-0.521-0.339-0.156,0.104-0.053,0.313
		c0.104,0.208,0.47,0.625,0.808,1.302c0.339,0.678,0.339,1.589-0.417,1.615c-0.755,0.025-0.858-0.704-0.963-0.834
		s-0.677-1.016-0.834-1.302c-0.156-0.286-0.364-0.833-0.364-0.833s-0.469,0.13-0.494,0.364c-0.026,0.234-0.104,1.067-0.573,1.172
		c-0.469,0.104-1.458,0.182-1.589-0.417c-0.13-0.599,0.781-0.677,0.781-0.677l0.417-0.573c0,0-0.599-0.885-0.469-1.119
		c0.13-0.235,0.651-0.626,0.651-0.626l-0.104-0.312l-0.391,0.13c0,0-1.146-0.651-1.927-1.016s-1.85-1.094-2.604-1.146
		C327.168,397.906,326.985,395.718,326.543,394.859L326.543,394.859z"/>
	<path fill-rule="evenodd" clip-rule="evenodd" fill="#00A1E4" d="M318.965,405.51c0,0,1.302,1.432,1.719,2.031
		c0.417,0.599,0.859,1.302,0.547,1.458s-0.417-0.025-0.495-0.338c0,0-0.364,0.26-1.016,1.275l-0.364-0.364
		c0,0-0.833,0.338-0.911,1.563c-0.078,1.224,0.859,2.864,1.51,3.308c0.651,0.442,2.267,0.963,2.943-0.053s0.547-2.291-0.104-3.021
		l-0.729,0.313l-0.156-0.261c0,0,1.016-0.521,1.537-1.016c0.521-0.494,1.25-1.458,0.938-2.447c-0.313-0.99-1.537-2.813-1.537-2.813
		s-0.391-0.131-1.197-0.078C320.84,405.119,319.407,405.613,318.965,405.51L318.965,405.51z"/>
	<path fill-rule="evenodd" clip-rule="evenodd" fill="#00A1E4" d="M330.631,388.271c0,0,0.625,0.495,0.99,0.338
		c0.364-0.156,0.364-0.286,0.364-0.286l-0.13-0.261C331.855,388.062,331.282,388.349,330.631,388.271L330.631,388.271z"/>
	<path fill-rule="evenodd" clip-rule="evenodd" fill="#00A1E4" d="M330.631,388.01c0,0,0.886,0.026,1.198-0.494
		c0,0-0.183-1.224-1.927-2.917l-0.365,0.13c0,0,0.781,0.547,0.625,0.729s-0.26,0.052-0.469-0.182
		c-0.208-0.234-0.599-0.521-0.885-0.469c-0.287,0.052-0.808,0.573-0.808,0.573s-0.052-0.182,0.13-0.391l-0.599,0.104
		c0,0,0.13,0.573-0.13,0.521c-0.261-0.052-0.313-0.391-0.313-0.391s-0.808,0.13-2.084-0.026c0,0-0.364,0.521-0.364,0.703
		c0,0-0.234,0.078-0.156-0.078s0.156-0.599,0.156-0.599s-1.797-0.104-2.214-0.365c0,0-0.286,0.729-0.208,1.51
		c0.078,0.782,0.703,3.047,0.911,3.88c0.209,0.833,0.209,1.823-0.156,3.203c0,0,1.771,1.25,4.428,0.677
		c2.656-0.573,4.219-2.682,4.453-5.156c0,0-0.834,0.104-1.459-0.651c0,0,0.078,0.599-0.234,1.042c0,0,0.808,0.625,0.781,1.068
		c-0.025,0.442-0.078,1.328-1.275,1.51c-1.198,0.183-1.381,0.078-1.381,0.078s-0.156,0.078-0.286-0.495l0.339-0.13
		c0,0,0.468,0.365,1.25,0.183c0.781-0.183,1.016-0.547,1.016-0.938s-0.234-1.354-1.537-0.938l-0.781,0.729l-0.442-0.078l0.391-0.417
		l-0.183-0.104c0,0-0.416,0.547-1.094,0.521c-0.677-0.026-1.458-0.26-2.031-1.901c0,0-0.625,0.443-1.041,0.391
		c-0.417-0.052-0.573-0.391-0.261-0.312c0.313,0.078,0.807,0.104,1.276-0.313c0,0-0.104-0.156-0.104-0.495
		c0,0-0.859,0.104-1.354-0.287c-0.494-0.391-0.13-0.677,0-0.651c0.131,0.026,0.547,0.963,1.354,0.755c0,0,0-1.302,0.703-1.667
		c0.703-0.364,1.458-0.39,2.109,0.704c0,0,0.313-0.755,0.989-0.782c0.678-0.026,1.537,0.651,1.797,2.136
		c0,0,0.573-0.287,0.625-0.469c0.053-0.183-0.025-0.573,0.234-0.443C331.517,387.151,331.777,387.437,330.631,388.01L330.631,388.01
		z"/>
	<path fill-rule="evenodd" clip-rule="evenodd" d="M328.574,390.901c0,0-0.521-0.182-0.729-0.052s-0.156,0.365,0,0.313
		S328.235,390.901,328.574,390.901L328.574,390.901z"/>
	<path fill-rule="evenodd" clip-rule="evenodd" d="M325.787,391.604c0,0,0.443,0.833,1.406,0.912
		c0.964,0.078,1.719-0.104,1.953-0.131c0.234-0.026,0.651-0.182,0.756-0.052c0.104,0.13-0.053,0.287-1.354,0.287
		c0,0-0.807,0.937-1.771,1.224s-1.797,0.157-1.589-0.495c0.208-0.651,0.911-1.068,0.911-1.068l-0.416-0.573
		c0,0-0.313,0.234-0.365,0.078c-0.052-0.156,0.131-0.391,0.521-0.417c0.391-0.026,0.442-0.026,0.416,0.079
		C326.23,391.552,325.892,391.526,325.787,391.604L325.787,391.604z"/>
	<path fill-rule="evenodd" clip-rule="evenodd" fill="#ED1847" d="M325.631,392.932c0,0-0.521,0.625-0.13,0.833
		s1.094-0.104,1.094-0.104S326.646,392.775,325.631,392.932L325.631,392.932z"/>
	<path fill-rule="evenodd" clip-rule="evenodd" fill="#FFFFFF" d="M328.209,388.687c0,0-0.182-1.224-0.494-1.927
		c0,0,0.313-0.859,1.094-0.729c0.781,0.13,1.849,1.485,1.197,3.282c0,0-0.521-0.052-0.885,0.13
		C329.121,389.442,329.068,388.245,328.209,388.687L328.209,388.687z"/>
	<path fill-rule="evenodd" clip-rule="evenodd" fill="#FFFFFF" d="M327.975,389.599c0,0,0.234-2.031-0.781-3.255
		c-1.016-1.224-2.656-0.261-2.135,1.979c0,0,0.78-0.885,1.25-0.026c0.469,0.859-0.495,1.38-0.495,1.38
		S326.595,390.953,327.975,389.599L327.975,389.599z"/>
	<path fill-rule="evenodd" clip-rule="evenodd" fill="#FFFFFF" d="M328.079,379.521c0,0-1.719,0.521-4.479,2.474
		c-2.76,1.953-3.75,3.255-4.661,4.271s-1.692,2.943-1.771,3.229c0,0-2.37-2.474-1.381-5.886c0.99-3.412,3.489-6.094,6.172-7.838
		c2.683-1.745,4.089-1.927,5.99-1.719c1.9,0.208,4.687,1.146,3.932,2.578c-0.755,1.432-2.63,1.875-4.297,1.823
		c-1.666-0.052-3.255-0.26-3.255-0.26s0.104-0.287-0.104-0.287s-1.042,0.338-0.521,0.573c0.521,0.234,3.541,0.234,3.541,0.234
		l-0.182,0.364c0,0-1.042-0.26-2.526,0.078s-2.994,0.781-2.994,0.781l0.025,0.26c0,0,3.021-1.016,4.584-0.963v0.156
		c0,0-3.256,0.859-4.714,1.563s-1.067,0.755-0.911,0.885c0.156,0.13,0.599-0.052,1.067-0.495s3.516-1.588,4.714-1.797
		C326.309,379.546,327.715,379.234,328.079,379.521L328.079,379.521z"/>
	<path fill-rule="evenodd" clip-rule="evenodd" fill="#FFFFFF" d="M317.48,399.13l-0.365,0.312c0,0-0.494-0.025-0.703,0.053
		c-0.208,0.078-0.989,0.808-0.755,1.067c0.234,0.261,1.016,0.234,1.328,0.131c0.313-0.104,1.094-0.651,1.225-0.808
		c0.13-0.156-0.001-0.286-0.443-0.313c0,0,0.625-1.067,1.354-1.693c0,0,1.119,1.017,2.005,0.573
		c0.886-0.442,1.771-1.563,1.614-2.864c-0.156-1.302-0.391-1.224-0.391-1.224s0.026-0.417,0.234-0.469
		c0.209-0.052,0.703,0.286,0.808,0.573s0.599,1.953,1.067,2.083c0.469,0.131,1.459,0.443,1.901-1.093h0.104
		c0,0,0.365,1.406,0.261,3.073c-0.104,1.667-0.703,4.114-0.703,4.114s-1.172-0.26-1.275,0c-0.104,0.261,1.146,1.276,1.849,1.225
		c0.703-0.053,0.833-0.808,0-1.068c0,0,0.286-0.911,0.286-1.953c0,0,1.589,0.02,1.589,0.86c0,0.338-0.729,0.233-0.964,0.807
		s0.104,0.911,0.209,1.276c0.104,0.364,0.364,1.197-0.756,1.536c-1.119,0.339-1.666,0-2.188-0.052
		c-0.521-0.053-1.119,0.104-1.119,0.104s-0.365-0.599-0.964-0.702c-0.599-0.104-2.682,0.104-3.802,0.312
		c-1.12,0.209-2.917-0.286-3.047-0.833c-0.131-0.547-0.078-1.302-0.469-1.511c-0.391-0.208-1.459-0.469-1.459-0.469l1.042-0.156
		c0,0,0.963,0.391,1.302,0.209c0.339-0.183,0.677-0.625,0.677-0.755c0-0.131-0.155-0.287-0.65-0.131s-0.703,0.104-0.703,0.104
		s0.078-0.287-0.026-0.703c-0.104-0.417-0.521-0.625-0.234-0.808c0.287-0.182,1.172-1.041,1.198-1.302s0.495-0.052,0.495-0.052
		S317.454,398.973,317.48,399.13L317.48,399.13z"/>
	<path fill-rule="evenodd" clip-rule="evenodd" d="M318.188,401.14c-0.188,0.189-0.8,0.839-0.737,1.275l0.036,0.254l0.244-0.083
		c0.121-0.041,1.196-0.412,1.507-0.694c0.08-0.073,0.23-0.21,0.189-0.386c-0.038-0.16-0.19-0.203-0.291-0.231l-0.129-0.044
		c-0.239-0.12-0.611-0.149-0.653-0.152l-0.097-0.007L318.188,401.14L318.188,401.14z"/>
	<path fill-rule="evenodd" clip-rule="evenodd" fill="#F283B4" d="M317.662,402.385c0,0,1.146-0.391,1.433-0.651
		c0.286-0.26,0.026-0.208-0.183-0.313c-0.208-0.104-0.572-0.13-0.572-0.13S317.61,402.02,317.662,402.385L317.662,402.385z"/>
	<path fill-rule="evenodd" clip-rule="evenodd" d="M319.061,403.117c-0.625,0.182-0.956,0.391-0.984,0.621
		c-0.031,0.244,0.067,0.413,0.161,0.483l0.039,0.029l0.048,0.01c0.281,0.056,0.653,0.095,0.825-0.043
		c0.143-0.114,0.204-0.418,0.185-0.904l-0.012-0.272L319.061,403.117L319.061,403.117z"/>
	<path fill-rule="evenodd" clip-rule="evenodd" fill="#F283B4" d="M319.121,403.322c0,0-0.808,0.234-0.834,0.442
		c-0.025,0.208,0.078,0.287,0.078,0.287s0.521,0.104,0.651,0C319.146,403.947,319.121,403.322,319.121,403.322L319.121,403.322z"/>
	<path fill-rule="evenodd" clip-rule="evenodd" d="M320.31,402.763l-0.146,0.066l0.022,0.158c0.042,0.294,0.327,0.461,0.848,0.496
		c0.162,0.011,0.402,0.112,0.597,0.194c0.295,0.126,0.49,0.208,0.647,0.113l0.09-0.054l0.029-0.133
		c0.009-0.074,0.028-0.248-0.602-0.853l-0.026-0.025l-0.033-0.016C321.101,402.423,320.389,402.728,320.31,402.763L320.31,402.763z"
		/>
	<path fill-rule="evenodd" clip-rule="evenodd" fill="#F283B4" d="M320.396,402.958c0,0,0.678-0.313,1.25-0.053
		c0,0,0.651,0.625,0.521,0.703c-0.131,0.078-0.729-0.313-1.12-0.338C320.657,403.244,320.423,403.14,320.396,402.958
		L320.396,402.958z"/>
	<path fill-rule="evenodd" clip-rule="evenodd" d="M323.822,403.768c0.048,0.043,0.19,0.196,0.221,0.33
		c0.047,0.211,0.132,0.349,0.261,0.422c0.115,0.064,0.251,0.071,0.405,0.021c0.161-0.054,0.262-0.19,0.262-0.357
		c0-0.226-0.184-0.464-0.418-0.542l-0.486-0.22L323.822,403.768L323.822,403.768z"/>
	<path fill-rule="evenodd" clip-rule="evenodd" fill="#F283B4" d="M323.965,403.608c0,0,0.234,0.208,0.286,0.443
		c0.052,0.234,0.156,0.364,0.391,0.286s0.078-0.417-0.156-0.495S323.965,403.608,323.965,403.608L323.965,403.608z"/>
	<path fill-rule="evenodd" clip-rule="evenodd" fill="#F283B4" d="M326.048,402.775c0,0-1.225-0.313-1.146,0
		c0.078,0.313,0.677,0.755,1.25,0.886c0.572,0.13,1.302-0.183,0.364-0.651l-0.261,0.391c0,0-0.469-0.104-0.391-0.104
		S326.048,402.775,326.048,402.775L326.048,402.775z"/>
	<path fill-rule="evenodd" clip-rule="evenodd" fill="#F283B4" d="M317.559,399.755c0,0,0.416-0.026,0.442,0.077
		c0.026,0.104-0.677,0.651-1.068,0.704c-0.39,0.052-1.146,0.156-1.067-0.157c0.078-0.312,0.651-0.729,0.651-0.729l0.416,0.025
		c0,0,0.287,0.47,0.392,0.443C317.428,400.093,317.559,399.755,317.559,399.755L317.559,399.755z"/>
	<path fill-rule="evenodd" clip-rule="evenodd" fill="#F283B4" d="M316.126,402.072c-0.203,0.141-0.703,0.026-0.964-0.234
		c0,0,0.234-0.104,0.313-0.261c0,0,0.339-0.025,0.729-0.078C316.595,401.447,317.22,401.317,316.126,402.072L316.126,402.072z"/>
	<path fill-rule="evenodd" clip-rule="evenodd" fill="#FFFFFF" d="M319.59,409.155c0,0-1.484-0.13-2.058,0.677
		c-0.573,0.808-1.146,1.953-0.286,4.141c0.858,2.188,2.994,3.88,5.13,3.308c2.136-0.573,2.786-2.239,2.239-4.036
		s-1.432-2.11-1.432-2.11l-0.209,0.131c0,0,1.016,1.354,0.469,2.578s-1.38,1.692-2.969,1.146c-1.588-0.547-2.422-2.734-2.396-3.646
		c0.025-0.911,0.625-1.953,1.354-2.006L319.59,409.155L319.59,409.155z"/>
	<path fill-rule="evenodd" clip-rule="evenodd" fill="#FFFFFF" d="M316.829,410.457c0,0-1.016,2.005,0.26,4.167l0.183,0.677
		c0,0-1.067-0.261-1.146-0.781S315.579,411.812,316.829,410.457L316.829,410.457z"/>
	<path fill-rule="evenodd" clip-rule="evenodd" fill="#FFFFFF" d="M318.678,406.916c0,0-1.094-1.225-2.422-0.912
		s-2.188,1.797-1.979,3.047c0.208,1.25,0.313,2.188,1.51,2.839c0,0,0.313-0.989,0.859-1.667c0,0-1.197-1.094-0.729-2.266
		c0.47-1.172,1.354-1.563,2.318-1.146L318.678,406.916L318.678,406.916z"/>
	<path fill-rule="evenodd" clip-rule="evenodd" fill="#FFFFFF" d="M314.563,406.863c0,0-1.25,1.719-0.286,3.933l-0.053,0.286
		c0,0-0.547-0.104-0.729-0.339C313.313,410.509,312.948,408.14,314.563,406.863L314.563,406.863z"/>
	<path fill-rule="evenodd" clip-rule="evenodd" fill="#FFE850" d="M327.063,398.192c0,0,0.599,0.052,1.354,0.468
		c0.755,0.417,1.875,0.99,2.525,1.511c0,0-0.729,1.016-1.927,0.729l0.755-0.573c0,0-1.302,0.781-2.786,0.234
		C326.985,400.562,327.063,399.13,327.063,398.192L327.063,398.192z"/>
	<path fill-rule="evenodd" clip-rule="evenodd" d="M328.262,398.869c0-0.133-0.001,0.104-0.313,0.494
		c-0.313,0.392-0.938,0.782-0.808,0.808C327.271,400.197,328.262,399.52,328.262,398.869L328.262,398.869z"/>
	<path fill-rule="evenodd" clip-rule="evenodd" fill="#FFE850" d="M327.063,394.598c0,0,1.458,0.417,1.692,0.573
		c0,0,0.131-0.208,0.104-0.339s0.078-0.104,0.183,0.078c0.104,0.182,0.078,0.521,0.078,0.521l0.338,0.13c0,0,0.313-0.729-0.26-1.615
		C329.199,393.947,327.845,394.416,327.063,394.598L327.063,394.598z"/>
	<path fill-rule="evenodd" clip-rule="evenodd" fill="#FFE850" d="M330.709,392.697c0,0-0.833,0.807-1.328,1.094
		c0,0,0.625,1.51,0.261,1.849c0,0,1.797,0.677,2.683,1.458C332.324,397.099,332.74,395.587,330.709,392.697L330.709,392.697z"/>
	<path fill-rule="evenodd" clip-rule="evenodd" fill="#FFE850" d="M310.553,393.817c0,0-0.416-0.599,0.156-1.484
		c0.573-0.886,1.381-1.146,2.709-1.172c1.328-0.026,2.942-0.104,3.776-1.25c0.833-1.146,0.481-1.594,2.005-3.464
		c0.572-0.703,0.781-0.938,0.781-0.938s0.078,0.755,0.156,1.276c0.078,0.521,0.13,2.344-0.313,3.177
		c-0.442,0.833-0.625,1.068-0.547,1.068s0.729-0.859,0.859-1.354c0.13-0.495,0.208-1.693,0.13-2.891
		c-0.078-1.198,0.026-1.667,0.026-1.667s0.572-0.651,1.041-0.989c0,0,0.313,0.078,0.729,0.546c0,0,0.104,0.235-0.052,0.938
		s0.13,2.188,0.547,3.646c0.417,1.458,0.625,4.167-0.808,4.922c-1.433,0.755-1.719,0.677-3.308,0.13
		c-1.588-0.547-2.63-0.156-2.525,0.313c0,0-1.615,0.313-1.85,0.521c0,0-0.911-1.067-1.536-1.276c0,0,0.599-1.067,2.058-1.588
		c1.458-0.521,3.516-1.042,4.322-2.213c0.808-1.172,1.225-2.032,0.808-2.422c0,0,0.104,1.016-0.391,1.641s-0.677,1.198-2.109,1.823
		s-4.089,0.912-5.183,2.683c0,0-0.755-0.313-1.197,0.078c0,0-0.078-0.703,0.677-1.198s0.808-0.755,1.303-0.833
		C312.819,391.838,310.865,392.307,310.553,393.817L310.553,393.817z"/>
	<path fill-rule="evenodd" clip-rule="evenodd" d="M307.764,385.654c0,0,1.284,0.592-0.74,4.691
		C307.023,390.345,309.739,385.852,307.764,385.654L307.764,385.654z"/>
	<path fill-rule="evenodd" clip-rule="evenodd" fill="#FFE850" d="M335.407,380.95c0,0-0.115-3.774-5.731-1.542
		C329.676,379.408,333.635,379.247,335.407,380.95L335.407,380.95z"/>
	<path fill-rule="evenodd" clip-rule="evenodd" fill="#FFE850" d="M331.148,385.646c0,0,0.276,0.392,0.529,0.806
		c0,0,2.349,0.437,3.314-0.576c0.967-1.013,1.266-3.199,0.392-4.166c-0.875-0.967-2.209-1.841-4.005-2.002
		c-1.795-0.161-1.91-0.253-1.91-0.253s-0.483-0.069-0.69,0.161c0,0,1.357,0.161,2.117,0.943s0.921,1.704,0.806,1.75
		s-0.461-1.197-1.036-1.634c-0.575-0.437-1.887-0.99-2.439-0.944c0,0-3.89,1.404-6.56,4.212c0,0,0.553,0.99,3.476,1.036
		s3.13-0.368,4.351-0.599c1.219-0.23,2.945-0.483,3.797,0.092s0.161,1.243,0.047,1.289c-0.116,0.046-0.438-0.115-0.392-0.23
		c0.046-0.116,0.299-0.208,0.299-0.369s-0.115-0.368-0.115-0.368s-0.114,0.115-0.114,0.253c0,0.138-0.483,0.645-0.783,0.645
		c0,0-0.161-0.069,0.185-0.276c0.345-0.207,0.414-0.414,0.345-0.598c0,0-0.599,0.667-1.082,0.69c0,0-0.115-0.092,0.208-0.23
		c0.322-0.138,0.713-0.645,0.552-0.713c-0.161-0.069-0.322,0.115-0.46,0.391S331.517,385.669,331.148,385.646L331.148,385.646z"/>
	<path fill-rule="evenodd" clip-rule="evenodd" fill="#00A1E4" d="M344.499,388.27l-0.253,0.207c0,0,0.184,0.253,0.046,0.391
		c-0.139,0.139-0.392,0.092-1.174-0.828c-0.782-0.921-1.128-1.611-1.404-1.772s-1.588-0.391-2.302,0.415
		c-0.714,0.805-1.266,2.278-0.207,3.107c1.059,0.829,2.877,0.852,3.338,0.806c0.46-0.046,0.391-0.322,0.575-0.368
		c0.184-0.046,0.713,0.115,0.46,0.414s-1.312,0.369-2.094,0.322c-0.783-0.046-1.358-0.138-1.358-0.138s-0.23,1.75,2.256,2.739
		c2.485,0.99,4.005,0.944,5.386,0.737c1.381-0.208,2.371-0.622,2.371-0.622s-0.161-0.345,0.115-0.507
		c0.275-0.161,0.598-0.138,0.598-0.138s0.139,0.576,0.898,0.599s2.485-0.092,3.383-1.289c0.898-1.197,1.45-2.693,0.185-3.66
		c-1.266-0.967-3.038-0.299-3.545,0.23s-0.599,0.829-0.599,0.829s-0.46-0.161-0.414-0.391c0.046-0.23,0.529-0.783,0.529-0.783
		s-0.391-2.992-1.818-3.683c0,0-0.114,0.368-0.299,0.414s-0.414,0.023-0.438-0.161c-0.023-0.185,0.069-1.082-0.299-1.266
		c-0.369-0.184-1.174-0.184-1.543,0.253c0,0-0.138-0.092,0.023-0.322c0,0-0.622-0.069-0.69-0.023c0,0,0.184,0.368-0.139,0.437
		c-0.321,0.069-0.345,0.092-0.46-0.253s-0.322-0.345-0.645-0.161c-0.322,0.185-0.714,0.483-0.897,0.875c0,0-0.368,0.045-0.438,0.138
		s-0.921,0.529-1.496,1.358c0,0,0.414,0.667,0.714,0.944c0,0,0.092-0.438,0.621-1.036s1.934-1.519,2.232-0.46
		c0,0,0.576-0.645,1.335-0.368c0.76,0.276,0.829,0.852,0.322,1.795C346.87,387.994,345.903,389.329,344.499,388.27L344.499,388.27z"
		/>
	<path fill-rule="evenodd" clip-rule="evenodd" fill="#FFFFFF" d="M345.074,388.408c0,0,0.852,0.276,1.588-0.529
		c0.737-0.806,1.128-2.118,0.507-2.417c-0.621-0.299-1.634,0.207-2.256,1.519c0,0,0.714-0.23,0.668,0.415
		S345.167,388.339,345.074,388.408L345.074,388.408z"/>
	<path fill-rule="evenodd" clip-rule="evenodd" fill="#FFFFFF" d="M343.142,386.889c0,0,0.782-0.276,0.645,0.345
		c-0.139,0.622-0.415,0.598-0.415,0.598s0.322,0.507,0.645,0.622l0.483-0.368c0,0-0.185-0.921,1.036-2.256
		c0,0,0.069-0.575-0.461-0.506C344.545,385.393,343.693,385.899,343.142,386.889L343.142,386.889z"/>
	<path fill-rule="evenodd" clip-rule="evenodd" fill="#FFFFFF" d="M356.468,390.572c0,0,1.611-1.542,1.313-3.936
		s-0.714-5.961-3.521-8.378c-2.809-2.417-4.811-3.774-8.103-3.314c-3.291,0.46-7.09,2.578-7.365,4.488
		c-0.276,1.911,1.22,2.117,2.209,2.071c0.99-0.046,4.144-0.207,5.248-0.736c1.105-0.529,1.174-0.783,1.197-0.99
		c0,0,0.806-0.069,0.852,0.23c0.046,0.299-0.483,0.875-3.476,1.473l-0.185,0.713c0,0,2.21-0.483,3.384-0.69
		c1.174-0.207,1.474-0.138,1.589,0c0.114,0.138-0.185,0.299-0.185,0.299s-2.163,0.092-4.166,0.645
		c-2.003,0.552-4.488,1.266-4.627,2.325c-0.138,1.059,0.253,1.036,0.253,1.036s0.714-0.069,1.06,0.23l0.229-0.322
		c0,0-0.667,0.023-0.483-0.346c0.185-0.368,0.829-0.943,2.096-0.897c0,0,0.275-0.184,0.667-0.483
		c0.392-0.299,0.507-0.667,1.104-0.667c0.599,0,0.599,0.46,0.599,0.46l0.276-0.069c0,0,0.138-0.415,0.599,0
		c0,0,1.013-0.46,1.611-0.253c0.598,0.208,0.782,1.381,0.782,1.381s1.473,0.483,2.394,3.406c0,0,2.302-0.943,3.407-0.138
		C356.33,388.915,356.399,389.628,356.468,390.572L356.468,390.572z"/>
	<path fill-rule="evenodd" clip-rule="evenodd" d="M353.729,390.94c0,0,0.368,0.299,0.092,0.391
		c-0.276,0.092-0.438,0.391-0.438,0.391s0.299,0.852,0,1.082c-0.299,0.23-0.714,0.552-1.749,0l0.092-0.184
		c0,0,1.197,0.322,1.45-0.023s0.046-1.151-0.414-1.128c-0.461,0.023-0.691-0.092-0.99,0.23l-0.507,0.069c0,0,0.484-0.69,1.52-0.921
		c1.036-0.23,1.313-0.437,2.003-0.437s0.897,0.184,0.138,0.437c0,0,0.438-0.414-0.552-0.276
		C353.384,390.71,353.729,390.94,353.729,390.94L353.729,390.94z"/>
	<path fill-rule="evenodd" clip-rule="evenodd" d="M345.604,391.24c0,0,1.749,1.588,1.104,2.141
		c-0.645,0.552-1.036,0.829-2.278,0.46c-1.243-0.369-1.957-1.45-2.44-1.934c0,0-0.667-0.138-1.035-0.438
		c0,0-0.254,0.115-0.276,0.207c-0.023,0.092-0.276-0.184-0.069-0.391s0.139-0.23,0.622,0.046s1.427,0.46,2.163,0.391
		c0.736-0.069,2.877-0.897,3.499-1.726c0,0-0.346-0.069-0.322-0.162c0.022-0.092,0.414-0.483,1.035-0.046
		c0.622,0.437,0.23,0.529,0.115,0.599c-0.115,0.069-0.553-0.322-0.553-0.322S346.687,390.756,345.604,391.24L345.604,391.24z"/>
	<path fill-rule="evenodd" clip-rule="evenodd" fill="#ED1847" d="M345.72,392.345c0,0-0.622-0.162-0.921,0.46
		c-0.3,0.622-0.139,0.783,0.184,0.783s1.45-0.069,1.428-0.415c-0.023-0.345-0.185-0.875-0.507-0.736s-0.322,0.391-0.299,0.576
		c0.022,0.184-0.161,0.345-0.185,0.253C345.397,393.173,345.029,392.759,345.72,392.345L345.72,392.345z"/>
	<path fill-rule="evenodd" clip-rule="evenodd" fill="#00A1E4" d="M333.75,403.393l-0.391-0.553l-0.161,0.207
		c0,0,0.022,0.393-0.3,0.668c-0.322,0.276-0.667,0.438-0.667,0.438s-0.414,0.967,0.299,1.289l0.23-0.161
		C332.761,405.28,332.898,404.268,333.75,403.393L333.75,403.393z"/>
	<path fill-rule="evenodd" clip-rule="evenodd" fill="#00A1E4" d="M333.889,403.577c0,0-0.438,0.229-0.69,1.059
		c-0.253,0.828-0.415,1.634,0.322,1.542c0,0,0.161-0.875,0.506-1.312c0.346-0.438,0.438-0.53,0.438-0.53
		S333.911,403.6,333.889,403.577L333.889,403.577z"/>
	<path fill-rule="evenodd" clip-rule="evenodd" fill="#00A1E4" d="M335.707,405.396c0,0-0.714,0.022-1.105-0.69
		c0,0-1.081,0.852-0.598,1.403C334.487,406.661,335.592,406.661,335.707,405.396L335.707,405.396z"/>
	<path fill-rule="evenodd" clip-rule="evenodd" fill="#00A1E4" d="M337.065,399.825c0,0,1.519,1.657,0.689,2.992
		c0,0,0.461,1.565-1.059,1.657c0,0,0.023,0.438-0.229,0.529c0,0,0.506,0.553,1.082,0.438c0.575-0.115,0.598-0.276,0.598-0.575
		c0-0.3,0.023-0.645,0.023-0.645s0.989-0.737,1.104-0.99s0.161-0.921,0.023-1.243c-0.139-0.322-0.207-0.852,0.276-0.207
		c0,0,1.427-0.966,2.854-1.703c1.428-0.736,1.979-0.921,1.979-0.921s-0.368-1.403,2.371-2.554c0,0,0.046-1.175,0.368-1.198
		s0.115,1.082,0.115,1.082s2.049-0.438,3.131,0.391c1.081,0.829,1.496,1.749,1.703,3.107c0,0,2.969-0.553,4.188,0.483
		c0,0-0.229-2.394-1.795-3.66c0,0-0.553,0-0.622,0.161c-0.068,0.161-0.138,0.392-0.138,0.392l-0.253-0.322
		c0,0-0.438,0.138-0.621,0.069c-0.185-0.069-0.415-0.346-0.093-0.438s3.96-0.713,5.594-0.783c1.634-0.069,2.67-0.092,2.67-0.092
		s0.207-0.805,0.345-0.966c0.139-0.161,0.438-0.414,0.507-0.253c0.069,0.161-0.276,0.46-0.253,0.921
		c0.022,0.46,0.253,0.852,0.345,0.852c0.093,0,0.23-0.253,0.23-0.253s0.115-0.53,0.529-0.553c0.415-0.023,1.289,0.392,1.542,0.438
		c0.254,0.046,0.714,0.069,1.428,0.759c0.713,0.691,1.403,1.727,1.403,1.727s0.875-0.553,0.967-0.828
		c0.093-0.276-0.068-1.243-0.483-1.703c-0.414-0.46-0.46-0.645-0.275-0.667c0.184-0.023,1.38,1.357,1.127,2.255
		c0,0,0.807-0.139,0.76-1.082c-0.046-0.943-0.713-2.025-0.967-2.301c-0.253-0.276,0.139-0.276,0.415,0.115
		c0.275,0.391,1.104,1.681,0.989,2.624c0,0,0.714-0.23,0.507-1.197c-0.207-0.967-0.714-2.141-2.232-2.808
		c-1.52-0.667-3.361-0.438-4.189,0.069c-0.829,0.506-0.829,0.391-0.76,0.069c0,0-1.934-0.276-3.89-0.161
		c-1.957,0.115-2.763,0.161-3.545,0.299c0,0-1.842,0.829-3.038,0.967c-1.197,0.138-1.611,0.023-1.957-0.138
		c0,0-1.657,0.829-3.591,0.921c0,0-0.368,0.322-2.209,0.943c-1.842,0.622-5.64,2.256-7.204,3.499c0,0,0.229,0.345,0.022,0.414
		s-0.346-0.046-0.346-0.046L337.065,399.825L337.065,399.825z"/>
	<path fill-rule="evenodd" clip-rule="evenodd" fill="#00A1E4" d="M355.77,405.675c0,0,1.487-0.385,1.692-1.18
		s0.077-1.769-0.615-1.846C356.847,402.649,356.642,404.727,355.77,405.675L355.77,405.675z"/>
	<path fill-rule="evenodd" clip-rule="evenodd" fill="#FFFFFF" d="M351.051,406.394c0,0,2.154,0.436,3.591-0.359
		c1.436-0.795,1.897-2.872,1.718-5.206c0,0-1.744-1.282-4.154-0.487c0,0,0,0.744,0.025,0.949c0,0,1.924-0.23,2.462,0.615
		c0.538,0.847,0.462,1.257,0.462,1.257s0.23,0,0.18,0.154c-0.052,0.153-0.154,0.076-0.154,0.076s0.154,0.59-0.257,0.615
		c-0.41,0.026-0.077-0.487-0.281-1.128c-0.206-0.641-0.309-1.615-2.411-1.308c0,0,0.051,2.308-0.692,3.692
		c0,0,2.026-0.308,2.154-0.025s-0.154,0.308-0.257,0.282s-0.461-0.052-0.461-0.052s0.128,0.385-0.026,0.385
		c-0.153,0-0.256-0.358-0.308-0.385c-0.051-0.025-0.974,0-1.153,0.154C351.487,405.624,351.18,406.111,351.051,406.394
		L351.051,406.394z"/>
	<path fill-rule="evenodd" clip-rule="evenodd" fill="#FFFFFF" d="M351.358,407.649c0,0-0.487,0.719-0.282,0.924
		c0.206,0.205,0.437-0.231,0.437-0.231s0.692,0.744,1.282,0.975c0.59,0.231,0.718,0.257,0.77,0c0.051-0.256-0.385-0.461-0.385-0.461
		s1.025-0.487,2.154-0.052c1.128,0.437,1.795,1.615,1.257,2.949c-0.539,1.333-1.642,2.872-4.643,3.539
		c-3,0.666-6.488,0.333-7.104-1.719c-0.615-2.051,2.924-3.077,2.924-3.077s1.718,0.872,2.949,0.719
		c1.23-0.154,1.436-0.026,1.23-0.385c-0.205-0.359-0.41-0.359-0.691-0.231c-0.283,0.129-1.181,0.333-2.026,0.077
		c-0.847-0.257-1.615-0.462-1.924-1.436c0,0,2.077-0.59,2.719-1.564C350.025,407.676,351.23,407.676,351.358,407.649
		L351.358,407.649z"/>
	<path fill-rule="evenodd" clip-rule="evenodd" fill="#FFFFFF" d="M348.641,408.137c0,0,1.615-0.923,2.487-2.692
		s0.949-4.514,0.437-6.077c-0.514-1.564-1.726-3.247-4.36-2.488c-1.692,0.487-2.487,1.821-2.59,2.462
		c-0.103,0.642-0.025,1.872,0.128,2.796c0.154,0.923-0.23,1.59-0.641,2.282s-1.103,2.437-0.642,3.154
		c0.462,0.718,2.052,1.513,3.514,1.18c1.462-0.334,2.077-1.385,2.154-1.642c0.077-0.256,0.308-0.256,0.308-0.256
		s-0.077,0.307-0.154,0.436C349.205,407.419,348.691,407.983,348.641,408.137L348.641,408.137z"/>
	<path fill-rule="evenodd" clip-rule="evenodd" d="M349.513,406.316c0,0,0.41-0.462,0.281-0.436
		C349.666,405.906,349.589,406.086,349.513,406.316L349.513,406.316z"/>
	<path fill-rule="evenodd" clip-rule="evenodd" d="M349.615,405.675c0,0,1-0.974,0.795-1.128c-0.205-0.153-0.462-0.025-0.462-0.025
		s0.642-0.897,0.897-1.205c0,0-1.461,1.436-1.205,1.538s0.359-0.308,0.539-0.18C350.358,404.804,349.615,405.394,349.615,405.675
		L349.615,405.675z"/>
	<path fill-rule="evenodd" clip-rule="evenodd" d="M350.281,403.444c0,0,0.642-3.616-0.666-4.385
		c-1.308-0.77-1.642-0.795-3.898-0.077c0,0,1.104-0.692,2.385-0.642C349.384,398.393,351.333,399.11,350.281,403.444
		L350.281,403.444z"/>
	<path fill-rule="evenodd" clip-rule="evenodd" d="M345.229,404.367c0,0,1.411-0.308,2.359-0.025
		c0.949,0.282,0.539,0.539,0.257,0.385C347.563,404.573,346.461,404.214,345.229,404.367L345.229,404.367z"/>
	<path fill-rule="evenodd" clip-rule="evenodd" d="M346.512,404.932c0.253,0,0.744,0.205,1.052,0.41s0.41-0.025-0.052-0.256
		c-0.461-0.231-0.897-0.437-1.025-0.359S346.384,404.932,346.512,404.932L346.512,404.932z"/>
	<path fill-rule="evenodd" clip-rule="evenodd" fill="#00A1E4" d="M369.198,399.133c-0.542-0.166-1.591,0.313-1.759,1.151
		s0.23,1.528,1.382,1.759c1.152,0.23,1.571-0.439,1.801-0.816C370.853,400.85,371.188,399.739,369.198,399.133L369.198,399.133z"/>
	<path fill-rule="evenodd" clip-rule="evenodd" fill="#FFFFFF" d="M367.648,401.938c0,0-0.544,1.026,0.146,1.759
		c0.691,0.733,2.346,1.592,4.984,1.802c2.639,0.209,3.142,0.544,3.142,0.544s-0.021-0.293,0.46-0.146
		c0.482,0.146,1.676,1.068,2.073,1.277c0.398,0.21,0.524,0.23,0.482,0.356c-0.042,0.125-0.252,0.355-0.252,0.355l-0.397-0.251
		c0,0-0.021,0.146-0.104,0.523c-0.084,0.377-0.314,0.733-0.314,0.733l-0.46-0.252c0,0,0-0.397,0.146-0.481
		c0.146-0.084,0.063-0.063-0.167-0.084c-0.23-0.021-1.801,0.084-2.241,0.964c-0.439,0.879-0.774,2.114-0.104,3.245
		s2.911,2.367,4.503,2.723c1.592,0.356,5.235,1.235,6.681-0.209c1.444-1.445,1.507-3.288,0.188-4.251
		c-1.318-0.964-2.555-1.739-4.271-1.864c0,0-0.984,1.151-1.403,1.486c0,0-0.439,0-0.439-0.355c0,0,1.361-1.277,1.801-2.24
		c0.439-0.964,0.712-2.115-0.67-3.017c-1.382-0.899-2.765-1.464-3.728-1.612c-0.272-0.041-0.104-0.334,0.168-0.293
		c0.271,0.042,0.564,0.042,0.564,0.042s0.272-0.984,0.252-1.235c0,0-0.859-1.089-3.121-1.885c-2.261-0.796-3.874-1.215-5.675-1.068
		l-0.335,0.377c0,0,1.487,0.838,1.57,1.466c0.084,0.629-0.523,1.718-1.277,1.948S368.423,402.336,367.648,401.938L367.648,401.938z"
		/>
	<path fill-rule="evenodd" clip-rule="evenodd" fill="#FFFFFF" d="M371.314,406.44c-0.095-0.104,0.522-0.146,1.779-0.125
		c1.257,0.021,2.178,0.146,2.199,0.355c0.021,0.21-0.168,0.336-0.461,0.23c-0.293-0.104-2.282-0.712-2.807-0.397
		c-0.523,0.314,0.629,0.125,0.964,0.146c0.335,0.021,2.157,0.356,2.282,0.481c0.126,0.126-0.042,0.503-0.544,1.173
		c-0.503,0.67-1.319,1.256-1.843,1.319c0,0-0.712-1.047-1.361-1.612s-0.922-0.984-0.922-0.984l0.335-0.314
		c0,0,0.272,0.272,0.44,0.23c0.167-0.042,0.271-0.335,0.271-0.335S371.502,406.65,371.314,406.44L371.314,406.44z"/>
	<path fill-rule="evenodd" clip-rule="evenodd" fill="#FFFFFF" d="M374.183,410.965c0,0-0.063,1.151,1.006,2.114
		c0,0,0.083,0.545-0.105,0.859c0,0-0.23-0.984-0.837-1.341c-0.607-0.355-2.011-0.732-2.283-0.879c0,0,0.23,0.313,0.691,0.418
		c0.461,0.105,1.131,0.23,1.654,0.964s0.545,1.486,0.084,1.885c-0.461,0.397-1.131,1.047-4,0.523s-6.283-3.184-5.947-6.408
		c0.335-3.225,3.999-3.183,4.816-2.576c0.816,0.607,1.528,1.152,2.471,2.325S373.952,410.776,374.183,410.965L374.183,410.965z"/>
	<path fill-rule="evenodd" clip-rule="evenodd" d="M371.67,411.739c0,0-0.21-0.816-0.356-0.754s-0.021,0.335-0.293,0.21
		c-0.272-0.126-0.838-1.257-1.005-1.341c-0.168-0.084-0.23,0.188-0.126,0.439c0.104,0.252,0.146,0.775,0.272,0.733
		s-0.104-0.461,0.084-0.481c0.188-0.021,0.564,0.858,0.774,0.858s0.294-0.251,0.335-0.146
		C371.397,411.362,371.481,411.739,371.67,411.739L371.67,411.739z"/>
	<path fill-rule="evenodd" clip-rule="evenodd" d="M369.492,410.294c0,0-0.377-0.481-0.649-1.109
		c-0.272-0.629-0.481-1.319-1.55-1.361s-1.801,0.607-1.885,0.9s-0.335-0.146,0.314-0.523c0.648-0.377,1.486-0.796,2.282-0.356
		C368.801,408.284,369.073,409.582,369.492,410.294L369.492,410.294z"/>
	<path fill-rule="evenodd" clip-rule="evenodd" fill="#00A1E4" d="M387.502,403.3c0,0,1.299-0.754,1.612-1.089
		c0,0,1.696,2.492,1.34,2.848c-0.355,0.356-0.816,0.649-1.025,0.44c0,0,0.46-0.649,0.23-1.026c-0.23-0.377-0.482-0.607-0.859-0.691
		C388.423,403.698,387.711,403.488,387.502,403.3L387.502,403.3z"/>
	<path fill-rule="evenodd" clip-rule="evenodd" fill="#00A1E4" d="M387.083,403.153c0,0,1.403-0.774,2.052-1.34
		c0.649-0.566,0.838-0.775,0.838-0.775s0.146,0.084,0.084,0.168c-0.063,0.083-0.649,0.816-0.649,0.816s0.481,0.691,0.858,1.34
		c0.377,0.649,0.545,1.068,0.545,1.068s0.712-0.397,0.733-1.047c0.021-0.649-0.523-2.597-1.55-3.916l-0.252,0.125
		c0,0-0.397-0.146-0.251-0.335s0.251-0.461,0.963-0.397c0.712,0.063,1.403,0.084,1.467-0.481c0.063-0.565-0.104-1.383-0.796-1.718
		s-0.88-0.063-1.194,0.419c-0.313,0.481-0.439,0.67-0.649,0.691c-0.209,0.021-1.025-0.419-1.402-0.356
		c-0.377,0.063-1.131,0.481-1.528,1.068c-0.398,0.586-0.482,0.544-0.671,0.397s-0.104-0.229-0.104-0.229s-0.984-0.336-2.576-1.194
		s-3.56-2.01-3.329-2.806c0,0-1.76-0.23-2.869-0.879l0.063,0.482c0,0-0.397,0.167-0.565,0.083c-0.167-0.083-0.063-0.418-0.23-0.712
		c-0.167-0.293-0.921-0.838-1.298-0.9c-0.377-0.063-3.686-0.021-5.487,0.67c0,0,1.319,1.319,1.277,2.764
		c0,0,2.032-0.251,2.849-0.314c0.816-0.063,1.151-0.167,1.256-0.063c0.104,0.104,0.168,0.523,0.042,0.565
		c-0.125,0.042-0.46-0.146-0.586-0.125s0,0.586-0.146,0.628s-0.377-0.251-0.356-0.544c0,0-1.089,0-1.403,0.126
		c0,0-1.675,1.256-2.01,1.738c0,0,2.178-0.146,4.837,0.88c2.66,1.026,3.31,1.718,3.645,2.073c0,0-0.146-2.22,0.042-3.519
		c0.188-1.298,0.377-2.052,0.523-2.01s0.167,0.167,0.104,0.44c-0.063,0.271-0.356,1.486-0.335,2.366c0,0,2.031,1.76,5.193,2.89
		c0,0,0.083-0.69,0.439-0.523c0.356,0.168,0.063,0.481-0.021,0.754s-0.607,0.964,0.167,1.99c0.775,1.025,2.785,2.785,3.938,2.052
		c1.151-0.733,0.502-1.361,0.125-1.444c-0.377-0.084-1.55-0.377-1.926-0.797c0,0-0.188,0.189-0.272,0.147s0.23-0.377,0.419-0.712
		s0.712-1.257,0.251-1.822s-1.047-0.963-1.299-0.9c0,0,0.105-0.252,0.649-0.021c0.545,0.23,1.173,0.691,1.11,1.341
		C387.731,402.002,387.481,402.65,387.083,403.153L387.083,403.153z"/>
	<path fill-rule="evenodd" clip-rule="evenodd" fill="#00A1E4" d="M361.429,397.679c0,0-0.269,0.804-0.905,1.172
		c-0.636,0.369-0.938,0.436-0.938,0.436s-0.235-0.703,0.569-1.038S361.228,397.645,361.429,397.679L361.429,397.679z"/>
	<path fill-rule="evenodd" clip-rule="evenodd" fill="#00A1E4" d="M362.836,396.003c0,0-0.604,0.436-0.905,1.24
		c-0.301,0.804-0.904,1.775-1.239,2.01s-1.775,0.57-1.508,1.407c0.268,0.838,1.307,0.604,1.876,0.234
		c0.57-0.368,1.006-0.938,1.006-0.938s0.067-0.805,0.302-0.704s0.1,0.805-0.269,1.24s-0.938,1.943,0.033,2.044
		s1.14-0.168,1.206-0.47c0.067-0.301,0.638-2.145,0.938-2.244c0.302-0.101-0.101-0.201-0.101-0.201s0.067-0.269,0.503-0.135
		c0.436,0.135,0.269,0.436,0.134,0.871c-0.134,0.436-0.703,1.073-0.469,1.207s0.972,0.469,1.44,0c0.469-0.47,0.034-0.737,0-1.105
		c-0.033-0.369-0.101-0.503,0.168-0.771c0.268-0.268,0.603-0.904,0.503-1.206c-0.102-0.302-0.737-1.206-1.207-1.541
		C364.779,396.605,364.143,396.104,362.836,396.003L362.836,396.003z"/>
	<path fill-rule="evenodd" clip-rule="evenodd" fill="#00A1E4" d="M375.905,388.385c0,0-0.695-1.37-2.131-1.457
		c-1.435-0.087-3.064,0.305-3.151,2.283s2.087,2.935,3.282,3.043c1.196,0.109,1.718-0.305,2-0.108c0.282,0.195,0.326,0.434,0,0.63
		c0,0,1.239,1.195,4.131,1.543c2.892,0.348,6.435-0.196,6.956-3.326c0,0-1.238,0.435-1.912,0.435c-0.675,0-2.305-0.196-1.783-0.783
		c0.521-0.586,0.674,0.218,1.5,0.239s2.979,0,3.152-1.608c0.174-1.609-1.065-2.305-1.479-2.261s-1.217,0.609-1.717,0.935
		c-0.501,0.327-1.131,0.739-1.262,0.609c-0.13-0.13,0.479-0.479,0.479-0.479s-0.543-0.239-0.456-0.391
		c0.087-0.152,0.738,0.196,0.956,0.109l0.5-0.391c0,0-0.108-0.696-0.239-1.022c-0.13-0.326-0.043-0.543,0.109-0.37
		c0.151,0.174,0.304,0.978,0.348,1.174c0,0,0.413-0.391,0.869-0.5c0.457-0.109,0.718,0,0.718,0s-0.543-1.652-0.695-1.783
		c-0.152-0.13-0.283-0.195-0.283-0.195s-0.282,0.195-0.326,0.195c-0.043,0-0.064-0.239-0.261-0.608
		c-0.195-0.37-0.5-0.892-0.805-0.805c-0.304,0.087-1.043,0.435-1.043,0.435s-0.044-0.261,0.087-0.305
		c0.131-0.043-0.392-0.261-0.674-0.217c0,0-0.108,0.392-0.413,0.392s-0.239-0.609-0.479-0.848s-0.5-0.521-1.065-0.043
		c-0.564,0.478-0.63,1.022-0.782,1.043c-0.152,0.022,0.021-0.609,0.021-0.609s-1.261,0.761-1.565,1.196
		c-0.304,0.435-2.087,2.043-2.304,2.87c0,0,0.479,0.565,0.195,0.848C376.102,388.537,376.015,388.472,375.905,388.385
		L375.905,388.385z"/>
	<path fill-rule="evenodd" clip-rule="evenodd" d="M379.971,390.819c0,0,0.674,1.391,1.805,1.761c1.13,0.37,2.435,0.196,3.087-0.217
		c0.652-0.413,0.608,0.304-1.131,0.609c-1.739,0.304-3.305-0.435-3.956-2c0,0-0.37,0.195-0.457,0.087
		c-0.087-0.109-0.108-0.326,0.326-0.5c0.435-0.174,0.674-0.152,0.718,0.021C380.405,390.754,380.166,390.754,379.971,390.819
		L379.971,390.819z"/>
	<path fill-rule="evenodd" clip-rule="evenodd" d="M383.167,386.928c0.046,0.279,0.217,0.391-0.218,0.5
		c-0.435,0.108-1.37,0.065-1.608-0.174c-0.239-0.239-0.239-0.543-0.479-0.391c-0.239,0.152-0.218,0.565,0.479,0.761
		c0.695,0.196,1.564,0.196,1.761,0.021c0.195-0.173,0.282-0.434,0.282-0.935c0-0.5-0.174-1.217-0.392-1.217
		c-0.217,0-0.326,0.152-0.108,0.413C383.102,386.167,383.123,386.667,383.167,386.928L383.167,386.928z"/>
	<path fill-rule="evenodd" clip-rule="evenodd" d="M372.884,390.21c0,0-0.436-0.282-0.174-0.565c0.261-0.283,0.479-0.37,0.413-0.479
		s-0.848-0.521-1.065-0.413c-0.218,0.109-0.065,0.196-0.044,0.304c0.022,0.109-0.435-0.174-0.174-0.413
		c0.261-0.239,0.892,0.065,1.348,0.304c0.457,0.239,0.957,0.674,1.239,0.848c0.283,0.174,0.761,0.413,0.761,0.565
		s0.065,0.435-0.391-0.043c-0.457-0.479-0.957-0.435-1.152-0.326c-0.195,0.109-1.174,0.413-0.87,0.826
		c0.305,0.413,0.457,0.544,1.088,0.522l0.282,0.239c0,0-1.5,0.065-1.674-0.521C372.297,390.471,372.884,390.21,372.884,390.21
		L372.884,390.21z"/>
	<path fill-rule="evenodd" clip-rule="evenodd" fill="#FFFFFF" d="M385.71,381.689c0,0,0.261,0.608,0.174,1.065
		c0,0-2.892-1.522-4.63-2.043c-1.739-0.521-1.565-0.239-1.479-0.087s0.717,0.37,1.913,0.717c1.195,0.348,2.881,1.078,4.195,1.804
		c0.826,0.457,2.892,1.74,3.131,2.761c0.239,1.022-0.739,1.261-1.174,1.587c0,0-0.435-0.608-0.892-0.739l-0.239-0.761
		c0,0,0.305-0.174,0.261,0.065c-0.043,0.239-0.087,0.217,0.087,0.152c0.174-0.065,0.261-0.37-0.021-0.631
		c-0.282-0.261-0.696-0.739-1.174-1c0,0-0.457-1.261-1.087-1.37c-0.631-0.108-1.087,0.218-1.087,0.218s-0.37-0.261-0.957-0.218
		c0,0-0.5-1-1.239-1s-1.238,0.848-1.348,0.957c0,0-2.805,1.696-4.5,3.87c0,0-2.848-1.718-4.869,0.435c0,0-0.805-1.609,0.304-4.131
		c1.108-2.521,3.762-5.239,7.457-6.717s6.805-2.261,8.587-1.217c1.783,1.043,6.239,3.109,4.957,5.63
		c-1.283,2.522-6.175,0.326-7.37-0.326c-1.195-0.652-1.631-1.5-1.892-1.522c-0.261-0.022-0.848,0.087-0.738,0.326
		C382.188,379.754,382.667,380.732,385.71,381.689L385.71,381.689z"/>
</g>
</svg>
